<svg id="Layer_1" data-name="Layer 1" xmlns="http://www.w3.org/2000/svg" viewBox="0 0 762.72 762.72"><defs><style>.cls-1{fill:#71cbd2;}</style></defs><title>Color-Room-Films-Teal-Logo</title><path class="cls-1" d="M400,18.64C189.38,18.64,18.64,189.38,18.64,400S189.38,781.36,400,781.36,781.36,610.62,781.36,400,610.62,18.64,400,18.64Zm264.61,646A374.22,374.22,0,0,1,135.39,135.39,374.22,374.22,0,0,1,664.61,664.61Z" transform="translate(-18.64 -18.64)"/><path class="cls-1" d="M400,33.66c-202.32,0-366.34,164-366.34,366.34S197.68,766.34,400,766.34,766.34,602.32,766.34,400,602.32,33.66,400,33.66ZM654,654A359.2,359.2,0,0,1,146,146,359.2,359.2,0,0,1,654,654Z" transform="translate(-18.64 -18.64)"/><path class="cls-1" d="M646.45,400.39c0-136.32-110.52-246.84-246.84-246.84S152.77,264.07,152.77,400.39,263.29,647.23,399.61,647.23,646.45,536.71,646.45,400.39ZM399.61,640.08c-132.16,0-239.69-107.53-239.69-239.69S267.45,160.7,399.61,160.7,639.3,268.23,639.3,400.39,531.78,640.08,399.61,640.08Z" transform="translate(-18.64 -18.64)"/><path class="cls-1" d="M122.35,400.13c-.13-7.72-1.49-15.9-4.77-22.26l-8,.14c1.77,3.46,4.75,10.89,4.94,21.77C114.83,416,108,423.87,99.29,424s-15.9-7.68-16.17-23.52a51.9,51.9,0,0,1,4.32-22.1l-8,.14c-3.14,6.64-4.12,15.19-4,22.66.35,20.23,10.17,33,24.14,32.73S122.71,420.52,122.35,400.13Z" transform="translate(-18.64 -18.64)"/><path class="cls-1" d="M99.57,361.61c13.66,3.3,25.89-7.19,30.51-26.3,4.71-19.5-1.45-34.11-15.11-37.42S89,305.25,84.44,324.28,86,358.33,99.57,361.61ZM92.1,326.13c3.07-12.71,11-21,20.56-18.68s12.93,13.24,9.84,26-11,20.91-20.62,18.58S89,338.92,92.1,326.13Z" transform="translate(-18.64 -18.64)"/><polygon class="cls-1" points="142.93 235.85 135.95 232.38 120.83 262.78 87.22 246.08 83.1 254.37 123.69 274.55 142.93 235.85"/><path class="cls-1" d="M144.1,238.25c11,8.76,26.52,4.41,38.77-11C195.39,211.61,196,195.76,185,187s-26.62-4.28-38.82,11S133.18,229.53,144.1,238.25Zm8.23-35.32c8.15-10.23,18.84-14.38,26.53-8.25s6.12,17.46-2.08,27.75-18.8,14.31-26.55,8.13S144.12,213.21,152.33,202.93Z" transform="translate(-18.64 -18.64)"/><path class="cls-1" d="M219,188.36,209.49,176l13.93-10.68,18.32,5.62,8.45-6.48-19.64-6.13c4.51-6.53,4-13.2.6-17.65-4.25-5.55-13.11-8.69-22.39-1.58L184.06,158l27.57,36Zm-22.83-29.79,15.61-12c5.41-4.15,9.44-3,11.71-.07s2.3,7.14-3.12,11.29l-15.6,12Z" transform="translate(-18.64 -18.64)"/><path class="cls-1" d="M294.93,142.38l-5.12-14.73,16.58-5.76L322,133l10.05-3.49-16.72-12c6.34-4.78,8-11.27,6.12-16.57-2.29-6.6-9.71-12.36-20.76-8.53l-29.4,10.21,14.87,42.82Zm6.26-41.9c6.45-2.24,9.92.08,11.15,3.61s-.07,7.5-6.51,9.74l-18.57,6.45-4.64-13.35Z" transform="translate(-18.64 -18.64)"/><path class="cls-1" d="M373.05,124.43c20-1.92,31.77-12.51,30.43-26.5s-15.42-22.11-34.91-20.25-31.69,12.59-30.35,26.5S353.48,126.3,373.05,124.43Zm-3.73-38.9c13-1.25,23.44,3.55,24.38,13.33s-8.29,16.55-21.4,17.8S349,113.11,348,103.24,356.22,86.78,369.32,85.53Z" transform="translate(-18.64 -18.64)"/><path class="cls-1" d="M446.88,127.31c19.76,3.48,34-3.6,36.39-17.44s-9-25.42-28.26-28.81-33.89,3.7-36.31,17.46S427.52,123.91,446.88,127.31Zm-18.5-27.09c1.7-9.68,12.3-13.67,25.27-11.4s21.64,9.67,19.94,19.35-12.4,13.74-25.36,11.46S426.66,110,428.38,100.22Z" transform="translate(-18.64 -18.64)"/><polygon class="cls-1" points="496.58 97.18 502.75 133.02 534.82 115.88 531.79 146.31 540.62 150.63 544.54 101.18 509.1 120.03 502.21 80.49 465.6 113.95 474.43 118.27 496.58 97.18"/><polygon class="cls-1" points="587.56 170.8 607.88 192.4 613.56 187.06 593.3 165.52 602.23 157.11 627.28 183.74 633.02 178.34 601.57 144.91 568.55 175.97 574.9 182.71 587.56 170.8"/><rect class="cls-1" x="621.77" y="222.07" width="45.33" height="9.26" transform="translate(-31.47 394.3) rotate(-35.2)"/><polygon class="cls-1" points="637.76 274.17 644.67 270.56 628.95 240.46 662.22 223.08 657.93 214.88 617.75 235.87 637.76 274.17"/><polygon class="cls-1" points="641.19 277.32 643.46 286.88 673.81 290.62 650.04 318.13 683.64 332.03 658.2 349.01 660.47 358.57 701.16 330.21 664.11 314.79 690.28 284.37 641.19 277.32"/><path class="cls-1" d="M710.15,384.79c-20.87-.58-8.68,39.91-20.86,39.56-5.27-.14-6.09-8.86-5.86-17a101.07,101.07,0,0,1,3.43-23.88l-7.87-.55a117.79,117.79,0,0,0-3,24.14c-.33,11.85,1.4,25.72,13.49,26.06,21.52.6,9.65-39.8,21-39.48,5.12.14,5.08,10.22,4.92,16-.21,7.39-.8,14-2.85,20.32l7.38.53c1.61-5.23,2.69-11.79,2.94-20.72C723.14,399.62,722.17,385.13,710.15,384.79Z" transform="translate(-18.64 -18.64)"/><polygon class="cls-1" points="127.05 522.42 104.35 525.44 119.81 508.55 116.85 502.86 89.35 515.66 92.06 520.86 109.68 512.24 98.35 524.46 101.72 530.91 118.22 528.62 101.07 538.13 103.78 543.33 130.02 528.11 127.05 522.42"/><path class="cls-1" d="M160.93,564.55c-4.86-7-10-7-14.19-4.14l-10.34,7.13c-4.15,2.86-6,7.69-1.16,14.73s10,7,14.18,4.14l10.34-7.12C163.91,576.42,165.78,571.59,160.93,564.55Zm-4.69,10.2-9.81,6.76c-2.36,1.63-4.61,1.41-7-2.11s-1.83-5.7.53-7.32l9.81-6.77c2.36-1.63,4.61-1.41,7,2.11S158.6,573.12,156.24,574.75Z" transform="translate(-18.64 -18.64)"/><polygon class="cls-1" points="163.42 581.53 167.26 578.25 152.57 561.01 148.72 564.28 154.21 570.72 134.99 587.1 138.71 591.46 157.93 575.09 163.42 581.53"/><rect class="cls-1" x="168.54" y="613.26" width="30.3" height="5.73" transform="translate(-400.79 292.23) rotate(-45.05)"/><path class="cls-1" d="M213.05,621.86c-6.56-5.49-11.53-4.09-14.78-.22l-8.07,9.62c-3.25,3.87-3.76,9,2.79,14.51s11.53,4.1,14.78.23l8.07-9.62C219.08,632.51,219.6,627.36,213.05,621.86Zm-1.81,11.08-7.66,9.13c-1.84,2.19-4.07,2.58-7.35-.17s-3.28-5-1.43-7.2l7.66-9.13c1.84-2.2,4.07-2.59,7.34.16S213.08,630.74,211.24,632.94Z" transform="translate(-18.64 -18.64)"/><polygon class="cls-1" points="213.81 646.41 216.86 620.85 210.48 616.65 193.81 641.95 198.49 645.03 211.12 625.84 208.1 651.36 214.48 655.57 231.15 630.26 226.47 627.18 213.81 646.41"/><path class="cls-1" d="M282.74,665.63l-10.8-4.83-12.38,27.65,5.24,2.34,4-9,5.31,2.38c6.44,2.88,10.19,1.42,12.34-3.4l1.69-3.78C290.33,672.17,289.13,668.49,282.74,665.63Zm0,9.47-1.27,2.82c-1,2.28-2.38,3-5.32,1.65l-5.28-2.36,4.24-9.46,5.27,2.36C283.25,671.39,283.76,672.81,282.74,675.1Z" transform="translate(-18.64 -18.64)"/><rect class="cls-1" x="282.85" y="685.07" width="30.3" height="5.73" transform="translate(-468.56 721) rotate(-70.53)"/><path class="cls-1" d="M313.87,686.09l-3.53,13.19c-1.43,5.36.85,9.31,8.15,11.26a34.67,34.67,0,0,0,8.21,1.17l.67-5a44.1,44.1,0,0,1-7.37-1.17c-3.82-1-4.7-2.67-3.86-5.79l3-11.25c.83-3.12,2.41-4.11,6.24-3.09a43.92,43.92,0,0,1,7,2.67l1.9-4.63a34.52,34.52,0,0,0-7.7-3.09C319.26,678.45,315.3,680.73,313.87,686.09Z" transform="translate(-18.64 -18.64)"/><polygon class="cls-1" points="321.8 670.87 330.15 672.25 326.03 697.16 331.68 698.1 335.81 673.18 344.15 674.56 344.98 669.58 322.63 665.88 321.8 670.87"/><path class="cls-1" d="M386.93,711.1c-.18,2.95-1.68,4.55-5.72,4.31s-5.35-2-5.18-4.95l1.22-21-5.72-.34-1.25,21.48c-.28,4.77,2.14,9.38,10.63,9.87s11.43-3.8,11.71-8.57l1.25-21.48-5.72-.33Z" transform="translate(-18.64 -18.64)"/><path class="cls-1" d="M426.59,701.35l-.22-4c-.29-5.31-3-8-10.08-7.65l-12.4.68,1.66,30.25,5.72-.31-.54-10,5.45-.3,7.49,9.61,6.86-.38-8.09-10.4C425.56,707.61,426.79,705,426.59,701.35Zm-9.69,3.72-6.45.36-.56-10.27,6.45-.35c3-.17,4.19.82,4.33,3.36l.17,3C421,703.71,420,704.9,416.9,705.07Z" transform="translate(-18.64 -18.64)"/><polygon class="cls-1" points="428.05 693.3 426.8 685.58 438.48 683.69 437.67 678.7 425.99 680.59 424.82 673.36 437.49 671.31 436.68 666.33 418.36 669.29 423.19 699.2 441.52 696.24 440.71 691.25 428.05 693.3"/><polygon class="cls-1" points="481.89 653.54 481.42 676.43 467.08 658.58 461 660.65 469.48 689.77 475.03 687.88 469.19 669.16 479.54 682.21 486.43 679.87 486.67 663.2 493.46 681.6 499.02 679.71 487.96 651.47 481.89 653.54"/><polygon class="cls-1" points="514.11 667.35 510.75 660.28 521.42 655.2 519.25 650.64 508.57 655.72 505.43 649.11 517.01 643.6 514.84 639.04 498.08 647.02 511.11 674.37 527.86 666.39 525.69 661.83 514.11 667.35"/><polygon class="cls-1" points="542.5 622.64 547.33 645.02 529.25 630.98 523.82 634.39 538.8 660.76 543.76 657.64 533.75 640.77 546.84 651.08 553 647.21 549.39 630.94 560.25 647.27 565.21 644.15 547.93 619.23 542.5 622.64"/><path class="cls-1" d="M598.11,624.17c-3.2-3.92-8.16-5.39-14.78,0s-6.18,10.57-3,14.48l7.94,9.72c3.19,3.91,8.15,5.38,14.78,0s6.17-10.56,3-14.47Zm1.76,20.28c-3.31,2.71-5.53,2.29-7.34.07L585,635.29c-1.82-2.22-1.78-4.48,1.53-7.19s5.53-2.28,7.35-.06l7.54,9.23C603.22,639.49,603.18,641.75,599.87,644.45Z" transform="translate(-18.64 -18.64)"/><path class="cls-1" d="M623.67,603.54l-2.83-2.77c-3.81-3.72-7.67-3.86-12.6,1.18l-8.68,8.88L621.23,632l4-4.1-7.16-7,3.81-3.9,12,2,4.8-4.92-13-2.2C627.14,608.84,626.27,606.09,623.67,603.54Zm-4.62,9.29-4.52,4.62-7.35-7.19,4.51-4.62c2.13-2.18,3.65-2.23,5.47-.45l2.14,2.1C621.13,609.07,621.24,610.58,619.05,612.83Z" transform="translate(-18.64 -18.64)"/><rect class="cls-1" x="633.33" y="578.18" width="5.73" height="30.3" transform="translate(-244.52 691.36) rotate(-50.71)"/><polygon class="cls-1" points="638.76 563.52 632.32 559.07 639.05 549.34 634.9 546.47 628.17 556.2 622.14 552.03 629.45 541.48 625.29 538.6 614.73 553.87 639.65 571.11 650.21 555.85 646.06 552.97 638.76 563.52"/><path class="cls-1" d="M677.52,543.14c-5.29-2.94-6.64-3.22-12.31,3-3.65,3.95-3.77,4-6.8,2.3-2.3-1.28-2.69-2.27-.81-5.65a40.23,40.23,0,0,1,4.73-6.64l-3.9-2.9a41.34,41.34,0,0,0-5.17,7.23c-3.73,6.72-2.56,10.23,2.25,12.91,5.6,3.11,7.32,2.92,12.31-2.68,3.69-4.2,4-4.14,6.92-2.51,2.54,1.42,3,2.43,1,6.05A28.27,28.27,0,0,1,670.3,561l3.45,3.06a25.39,25.39,0,0,0,6.19-7.38C684.3,548.84,682.53,545.93,677.52,543.14Z" transform="translate(-18.64 -18.64)"/><path class="cls-1" d="M399.61,166.81c-129,0-233.58,104.58-233.58,233.58S270.61,634,399.61,634,633.19,529.39,633.19,400.39,528.61,166.81,399.61,166.81Zm6.08,180.82H314.17c-37.3,0-49.21,26-49.21,52.85,0,27.19,11.91,53.47,49.21,53.47h91.52v42.77H314.17c-59.87,0-86.52-41.55-86.52-96.24s26.65-95.63,86.52-95.63h91.52ZM516.43,496.68l-42.2-60.57-30.56-.24-25.73-40.55,68.2-.27c27.23,0,32.67-15.39,32.67-24.29,0-8.55-5.44-23.95-32.67-23.95h-68.2V305.75h80.45c54.12,0,70.45,40.72,70.45,65,0,18.48-11.23,45.85-43.56,58.51l46.29,67.41Z" transform="translate(-18.64 -18.64)"/><path class="cls-1" d="M96.63,466.29a10.92,10.92,0,1,0,10.92,10.92A10.92,10.92,0,0,0,96.63,466.29Z" transform="translate(-18.64 -18.64)"/><path class="cls-1" d="M694.79,466.29a10.92,10.92,0,1,0,10.92,10.92A10.91,10.91,0,0,0,694.79,466.29Z" transform="translate(-18.64 -18.64)"/></svg>