<?xml version="1.0" encoding="utf-8"?>
<!-- Generator: Adobe Illustrator 16.0.3, SVG Export Plug-In . SVG Version: 6.00 Build 0)  -->
<!DOCTYPE svg PUBLIC "-//W3C//DTD SVG 1.1//EN" "http://www.w3.org/Graphics/SVG/1.1/DTD/svg11.dtd">
<svg version="1.1" id="Layer_1" xmlns="http://www.w3.org/2000/svg" xmlns:xlink="http://www.w3.org/1999/xlink" x="0px" y="0px"
	 width="350px" height="350px" viewBox="0 0 50 50" enable-background="new 0 0 50 49.97" xml:space="preserve">
<g>
	<path fill-rule="evenodd" clip-rule="evenodd" fill="#FFFFFF" d="M50,23.865c0.043,15.042-11.09,25.429-23.504,26.065
		c-7.095,0.364-13.323-1.821-18.528-6.659C2.847,38.513,0.189,32.561,0.01,25.575c-0.178-6.893,2.164-12.886,6.918-17.864
		c4.529-4.743,10.129-7.325,16.687-7.671c7.119-0.375,13.346,1.887,18.534,6.766C47.333,11.681,49.859,17.775,50,23.865z
		 M24.32,49.494c8.677,0.018,15.86-3.794,20.333-9.891c4.853-6.612,5.975-13.921,3.838-21.785
		c-1.309-4.072-3.448-7.643-6.566-10.578c-5.049-4.752-11.073-7.033-17.997-6.743C17.387,0.771,11.791,3.308,7.285,8.058
		c-5.093,5.368-7.328,11.805-6.688,19.181c0.507,5.833,2.88,10.847,7.008,14.993C12.358,47.006,18.157,49.357,24.32,49.494z"/>
	<path fill-rule="evenodd" clip-rule="evenodd" fill="#FFFFFF" d="M24.354,49.001c-5.476-0.073-10.86-2.065-15.399-6.15
		c-4.811-4.331-7.479-9.776-7.916-16.234C0.587,19.926,2.61,14.011,7.078,9.001c4.238-4.753,9.589-7.419,15.932-7.938
		c6.743-0.551,12.74,1.415,17.827,5.874c4.912,4.308,7.643,9.79,8.106,16.315c0.491,6.923-1.666,12.978-6.365,18.083
		C37.918,46.4,31.501,48.993,24.354,49.001z M25.8,48.506c6.16-0.105,12.093-2.672,16.773-7.909
		c4.358-4.878,6.323-10.656,5.9-17.176c-0.412-6.345-3.011-11.714-7.767-15.936c-5.981-5.309-12.981-7.006-20.798-5.511
		c-4.777,1.109-8.876,3.422-12.192,7.036c-4.142,4.513-6.246,9.865-6.253,15.995C1.449,37.839,11.866,48.466,25.8,48.506z"/>
	<path fill-rule="evenodd" clip-rule="evenodd" fill="#FFFFFF" d="M8.778,25.57c0.038-9.604,7.328-16.719,16.088-16.745
		c4.324-0.014,8.104,1.46,11.235,4.435c3.362,3.193,5.07,7.169,5.054,11.803c-0.031,9.183-7.359,15.607-14.983,16.076
		c-4.839,0.298-9.042-1.192-12.514-4.562C10.388,33.402,8.816,29.462,8.778,25.57z M25.034,9.301
		c-4.713,0.016-8.668,1.961-11.412,4.878c-3.066,3.26-4.525,7.14-4.324,11.632c0.358,8.046,7.262,15.298,16.467,14.857
		c4.146-0.199,7.701-1.839,10.555-4.852c3.191-3.369,4.635-7.409,4.295-12.057C40.046,15.965,33.475,9.357,25.034,9.301z"/>
	<path fill-rule="evenodd" clip-rule="evenodd" fill="#FFFFFF" d="M45.27,18.621c-0.581,0.679-1.137,1.329-1.704,1.992
		c0.803,0.333,1.596,0.662,2.432,1.009c-0.919,0.64-1.802,1.255-2.705,1.884c-0.051-0.213-0.109-0.397-0.132-0.586
		c-0.007-0.055,0.076-0.139,0.138-0.181c0.347-0.236,0.699-0.463,1.049-0.693c0.14-0.093,0.277-0.189,0.439-0.299
		c-0.741-0.308-1.459-0.605-2.194-0.91c0.523-0.602,1.032-1.186,1.566-1.799c-0.273-0.033-0.51-0.061-0.745-0.091
		c-0.387-0.051-0.774-0.102-1.161-0.158c-0.034-0.005-0.081-0.051-0.091-0.086c-0.05-0.172-0.088-0.346-0.14-0.555
		C43.104,18.306,44.168,18.461,45.27,18.621z"/>
	<path fill-rule="evenodd" clip-rule="evenodd" fill="#FFFFFF" d="M35.451,9.854c-0.178-0.081-0.325-0.149-0.474-0.217
		c-0.118-0.054-0.111-0.15-0.101-0.259c0.056-0.558,0.105-1.116,0.156-1.674c0.003-0.023,0.001-0.047,0.001-0.092
		c-0.69,0.364-1.368,0.724-2.077,1.098c-0.137-0.779-0.27-1.54-0.407-2.328c-0.129,0.122-0.244,0.229-0.356,0.337
		c-0.323,0.309-0.647,0.616-0.966,0.93c-0.084,0.082-0.155,0.104-0.262,0.042c-0.143-0.084-0.295-0.153-0.457-0.236
		c0.809-0.737,1.6-1.458,2.422-2.209c0.154,0.881,0.301,1.724,0.453,2.594c0.767-0.407,1.527-0.812,2.323-1.234
		C35.62,7.703,35.537,8.766,35.451,9.854z"/>
	<path fill-rule="evenodd" clip-rule="evenodd" fill="#FFFFFF" d="M8.963,14.678c-0.751,0.021-1.431-0.751-1.218-1.692
		c0.219-0.963,0.787-1.688,1.682-2.12c0.494-0.239,1.004-0.215,1.453,0.124c0.451,0.341,0.615,0.816,0.524,1.371
		c-0.083,0.508-0.334,0.939-0.646,1.339c-0.23,0.295-0.51,0.534-0.832,0.727C9.663,14.582,9.385,14.675,8.963,14.678z M8.305,13.208
		c0.015,0.083,0.011,0.201,0.054,0.3c0.216,0.491,0.766,0.672,1.25,0.44c0.404-0.193,0.695-0.5,0.925-0.868
		c0.173-0.278,0.299-0.577,0.285-0.922c-0.021-0.509-0.535-0.91-1.03-0.79c-0.396,0.096-0.697,0.331-0.956,0.636
		C8.542,12.347,8.337,12.723,8.305,13.208z"/>
	<path fill-rule="evenodd" clip-rule="evenodd" fill="#FFFFFF" d="M4.206,20.666c0.053-0.588,0.185-1.23,0.619-1.786
		c0.361-0.461,0.802-0.706,1.387-0.623c0.417,0.06,0.744,0.277,0.958,0.653c0.272,0.479,0.273,0.986,0.198,1.516
		c-0.07,0.492-0.218,0.949-0.499,1.357c-0.279,0.404-0.643,0.691-1.155,0.729c-0.577,0.043-1.098-0.29-1.332-0.814
		C4.245,21.394,4.211,21.078,4.206,20.666z M6.881,20.006c-0.031-0.135-0.061-0.361-0.138-0.571
		c-0.176-0.485-0.886-0.76-1.339-0.322c-0.582,0.563-0.771,1.272-0.587,2.051s1.054,0.877,1.5,0.388
		C6.694,21.138,6.829,20.637,6.881,20.006z"/>
	<path fill-rule="evenodd" clip-rule="evenodd" fill="#FFFFFF" d="M25.274,5.313c-0.047,0.61-0.365,1.011-0.869,1.282
		c-0.398,0.215-0.828,0.297-1.279,0.328c-0.396,0.027-0.78,0.012-1.156-0.115c-0.661-0.224-1.09-0.755-1.025-1.472
		c0.048-0.535,0.362-0.884,0.813-1.132c0.72-0.396,1.485-0.472,2.271-0.281c0.456,0.11,0.858,0.339,1.07,0.786
		C25.188,4.896,25.218,5.11,25.274,5.313z M23.167,4.382c-0.37-0.037-0.733,0.077-1.064,0.274c-0.148,0.089-0.294,0.217-0.381,0.363
		c-0.291,0.491-0.065,1.066,0.484,1.267c0.658,0.239,1.324,0.181,1.921-0.191c0.583-0.362,0.63-1.092,0.037-1.496
		C23.878,4.404,23.539,4.351,23.167,4.382z"/>
	<path fill-rule="evenodd" clip-rule="evenodd" fill="#FFFFFF" d="M28.661,7.191c-0.583-0.045-1.144-0.149-1.652-0.448
		c-0.611-0.359-0.957-0.982-0.755-1.687c0.131-0.455,0.45-0.746,0.89-0.901c0.492-0.175,0.994-0.167,1.503-0.076
		c0.46,0.082,0.89,0.238,1.257,0.525c0.431,0.338,0.695,0.85,0.537,1.459c-0.163,0.628-0.603,0.925-1.19,1.057
		C29.058,7.164,28.857,7.169,28.661,7.191z M28.006,4.552c-0.124,0.019-0.298,0.034-0.467,0.073
		c-0.287,0.066-0.501,0.254-0.612,0.511c-0.16,0.366-0.051,0.787,0.267,1.045c0.19,0.154,0.394,0.281,0.642,0.338
		c0.454,0.104,0.902,0.196,1.363,0.023c0.334-0.125,0.557-0.34,0.617-0.696c0.063-0.36-0.088-0.643-0.362-0.857
		C29.045,4.668,28.562,4.571,28.006,4.552z"/>
	<path fill-rule="evenodd" clip-rule="evenodd" fill="#FFFFFF" d="M13.92,9.133c0.425,0.135,0.837,0.265,1.284,0.406
		c-0.198,0.151-0.367,0.284-0.543,0.408c-0.031,0.021-0.094,0.013-0.137,0c-0.311-0.09-0.62-0.181-0.927-0.281
		c-0.115-0.037-0.204-0.033-0.303,0.046c-0.248,0.199-0.505,0.389-0.767,0.589c0.205,0.27,0.404,0.531,0.614,0.808
		c-0.152,0.123-0.295,0.243-0.444,0.352c-0.018,0.013-0.095-0.025-0.12-0.058c-0.284-0.366-0.562-0.737-0.844-1.105
		c-0.278-0.362-0.555-0.726-0.839-1.082c-0.059-0.072-0.057-0.104,0.014-0.157c0.574-0.433,1.127-0.898,1.727-1.294
		c0.598-0.395,1.302-0.047,1.448,0.504C14.149,8.517,14.095,8.839,13.92,9.133z M12.2,9.872c0.197-0.146,0.392-0.279,0.572-0.428
		c0.223-0.183,0.445-0.368,0.646-0.574c0.064-0.065,0.098-0.206,0.079-0.301c-0.061-0.316-0.377-0.457-0.657-0.288
		c-0.229,0.139-0.438,0.313-0.654,0.474c-0.177,0.132-0.35,0.268-0.528,0.404c0.097,0.123,0.187,0.236,0.274,0.351
		C12.019,9.624,12.103,9.74,12.2,9.872z"/>
	<path fill-rule="evenodd" clip-rule="evenodd" fill="#FFFFFF" d="M17.816,7.134c-0.03,0.143,0.175,0.278-0.033,0.386
		c0.002,0.009,0.006,0.025,0.006,0.025c0.159-0.029,0.173,0.095,0.208,0.196c0.041,0.117,0.084,0.233,0.128,0.359
		c-0.184,0.065-0.35,0.129-0.519,0.18c-0.029,0.008-0.098-0.032-0.108-0.063c-0.179-0.508-0.349-1.019-0.524-1.528
		c-0.137-0.396-0.279-0.789-0.426-1.204c0.218-0.075,0.42-0.146,0.623-0.216c0.447-0.155,0.891-0.319,1.342-0.465
		c0.296-0.096,0.595-0.1,0.89,0.036c0.475,0.219,0.697,0.959,0.278,1.419c-0.063,0.067-0.131,0.128-0.214,0.207
		c0.366,0.261,0.719,0.513,1.115,0.796c-0.256,0.079-0.472,0.15-0.69,0.209c-0.035,0.01-0.088-0.033-0.127-0.061
		c-0.27-0.194-0.535-0.393-0.807-0.583c-0.041-0.029-0.11-0.053-0.154-0.039C18.5,6.884,18.2,6.99,17.899,7.094
		C17.868,7.104,17.84,7.122,17.816,7.134z M17.612,6.637c0.26-0.09,0.501-0.171,0.74-0.257c0.227-0.082,0.455-0.161,0.675-0.258
		c0.171-0.076,0.272-0.278,0.242-0.425c-0.052-0.247-0.182-0.389-0.38-0.388c-0.113,0-0.23,0.018-0.339,0.05
		c-0.222,0.065-0.438,0.146-0.657,0.222c-0.188,0.066-0.375,0.136-0.568,0.207C17.425,6.082,17.517,6.354,17.612,6.637z"/>
	<path fill-rule="evenodd" clip-rule="evenodd" fill="#FFFFFF" d="M43.827,23.91c-0.168,0.532-0.221,1.076-0.234,1.62
		c-0.006,0.261,0.051,0.526,0.102,0.785c0.026,0.133,0.11,0.246,0.277,0.246c0.159,0,0.246-0.11,0.279-0.232
		c0.064-0.236,0.102-0.48,0.141-0.723c0.053-0.324,0.067-0.657,0.151-0.972c0.136-0.511,0.441-0.754,1.004-0.631
		c0.225,0.049,0.365,0.204,0.455,0.41c0.115,0.264,0.16,0.54,0.171,0.828c0.02,0.558-0.024,1.107-0.16,1.65
		c-0.008,0.027-0.02,0.054-0.025,0.072c-0.142,0-0.276-0.001-0.41,0.001c-0.082,0.001-0.103-0.036-0.08-0.11
		c0.17-0.542,0.189-1.102,0.168-1.663c-0.006-0.151-0.05-0.305-0.1-0.449c-0.064-0.188-0.303-0.221-0.414-0.056
		c-0.06,0.089-0.102,0.2-0.117,0.306c-0.049,0.334-0.069,0.673-0.122,1.007c-0.051,0.317-0.095,0.64-0.311,0.904
		c-0.312,0.383-1.005,0.335-1.264-0.084c-0.165-0.269-0.229-0.566-0.245-0.869c-0.037-0.673,0.019-1.342,0.16-2.003
		c0.018-0.078,0.046-0.104,0.126-0.094c0.129,0.016,0.26,0.02,0.391,0.029C43.782,23.885,43.795,23.896,43.827,23.91z"/>
	<path fill-rule="evenodd" clip-rule="evenodd" fill="#FFFFFF" d="M4.501,23.561c-0.068,0.248-0.146,0.484-0.196,0.727
		c-0.128,0.615-0.12,1.224,0.195,1.786c0.187,0.333,0.486,0.51,0.88,0.456c0.363-0.049,0.594-0.274,0.73-0.604
		c0.145-0.349,0.174-0.711,0.152-1.087c-0.025-0.448-0.112-0.879-0.326-1.325c0.196,0,0.365-0.003,0.535,0.004
		c0.022,0.001,0.05,0.053,0.063,0.086c0.194,0.459,0.275,0.939,0.274,1.438c-0.001,0.475-0.063,0.936-0.282,1.361
		C6.323,26.8,6.021,27.1,5.564,27.183c-0.647,0.117-1.17-0.129-1.514-0.715c-0.335-0.571-0.349-1.201-0.326-1.838
		c0.013-0.347,0.085-0.68,0.222-0.997c0.012-0.027,0.037-0.068,0.057-0.069C4.169,23.558,4.335,23.561,4.501,23.561z"/>
	<path fill-rule="evenodd" clip-rule="evenodd" fill="#FFFFFF" d="M41.126,12.047c-0.552-0.588-1.094-1.165-1.67-1.778
		c-0.164,0.206-0.322,0.404-0.494,0.619c0.167,0.178,0.375,0.402,0.585,0.626c0.204,0.218,0.409,0.436,0.616,0.651
		c0.054,0.057,0.065,0.095-0.005,0.151c-0.102,0.081-0.192,0.174-0.313,0.284c-0.442-0.469-0.882-0.935-1.331-1.411
		c-0.278,0.265-0.547,0.521-0.824,0.785c-0.129-0.139-0.257-0.268-0.372-0.406c-0.02-0.023,0-0.109,0.029-0.138
		c0.23-0.225,0.469-0.441,0.704-0.661c0.352-0.329,0.701-0.66,1.053-0.99c0.087-0.082,0.17-0.171,0.265-0.244
		c0.029-0.022,0.112-0.021,0.136,0.003c0.508,0.54,1.011,1.085,1.517,1.627c0.131,0.141,0.267,0.276,0.404,0.411
		c0.074,0.072,0.083,0.126-0.009,0.197C41.315,11.852,41.229,11.948,41.126,12.047z"/>
	<path fill-rule="evenodd" clip-rule="evenodd" fill="#FFFFFF" d="M7.915,17.184c0.225-0.45,0.443-0.891,0.662-1.33
		c0.093-0.186,0.189-0.369,0.275-0.559c0.039-0.085,0.083-0.089,0.157-0.049c0.114,0.062,0.231,0.117,0.37,0.187
		c-0.047,0.104-0.091,0.212-0.144,0.315c-0.288,0.57-0.579,1.14-0.868,1.71c-0.071,0.143-0.141,0.286-0.198,0.434
		c-0.038,0.096-0.077,0.096-0.161,0.053C7.23,17.55,6.45,17.159,5.671,16.769c-0.076-0.038-0.156-0.066-0.241-0.103
		c0.085-0.173,0.163-0.326,0.235-0.482c0.032-0.07,0.068-0.081,0.136-0.046c0.356,0.182,0.712,0.363,1.071,0.54
		C7.212,16.847,7.555,17.01,7.915,17.184z"/>
	<path fill-rule="evenodd" clip-rule="evenodd" fill="#FFFFFF" d="M43.42,14.614c-0.728,0.378-1.438,0.747-2.17,1.128
		c0.345,0.666,0.685,1.32,1.027,1.98c-0.127,0.068-0.241,0.131-0.355,0.191c-0.07,0.037-0.122,0.031-0.164-0.05
		c-0.142-0.273-0.29-0.543-0.434-0.815c-0.259-0.49-0.513-0.982-0.774-1.47c-0.056-0.104-0.05-0.149,0.063-0.206
		c0.485-0.247,0.965-0.506,1.447-0.759c0.333-0.175,0.665-0.35,1.001-0.517c0.03-0.015,0.112,0.015,0.13,0.046
		C43.272,14.29,43.339,14.443,43.42,14.614z"/>
	<path fill-rule="evenodd" clip-rule="evenodd" fill="#FFFFFF" d="M37.075,42.192c-0.102,0.07-0.197,0.142-0.3,0.2
		c-0.018,0.01-0.081-0.03-0.103-0.062c-0.176-0.257-0.348-0.517-0.521-0.775c-0.018-0.026-0.042-0.047-0.088-0.098
		c0.063,0.294,0.113,0.553,0.176,0.809c0.024,0.099,0.021,0.161-0.083,0.209c-0.108,0.051-0.208,0.176-0.307,0.171
		c-0.099-0.006-0.192-0.131-0.286-0.205c-0.076-0.059-0.15-0.121-0.227-0.181c-0.076-0.059-0.154-0.114-0.264-0.196
		c0.074,0.133,0.129,0.234,0.188,0.334c0.108,0.182,0.215,0.364,0.33,0.543c0.066,0.104,0.076,0.168-0.055,0.233
		c-0.227,0.114-0.226,0.124-0.35-0.093c-0.285-0.501-0.567-1.004-0.861-1.524c0.107-0.07,0.211-0.146,0.323-0.208
		c0.029-0.016,0.094,0.002,0.125,0.026c0.346,0.267,0.688,0.538,1.032,0.808c0.007,0.005,0.019,0.004,0.049,0.008
		c-0.017-0.088-0.03-0.169-0.048-0.249c-0.075-0.349-0.146-0.698-0.23-1.045c-0.021-0.086-0.021-0.129,0.063-0.171
		c0.094-0.047,0.178-0.113,0.283-0.184C36.308,41.094,36.687,41.636,37.075,42.192z"/>
	<path fill-rule="evenodd" clip-rule="evenodd" fill="#FFFFFF" d="M5.836,33.776c0.243-0.116,0.472-0.228,0.701-0.334
		c0.331-0.154,0.665-0.303,0.995-0.46c0.096-0.046,0.143-0.047,0.2,0.062c0.181,0.34,0.165,0.223-0.098,0.526
		c-0.235,0.272-0.481,0.535-0.743,0.824c0.315-0.041,0.608-0.077,0.902-0.115c0.162-0.021,0.323-0.049,0.485-0.065
		c0.028-0.003,0.072,0.024,0.089,0.051c0.053,0.085,0.107,0.173,0.139,0.267c0.011,0.033-0.029,0.106-0.066,0.128
		c-0.452,0.268-0.908,0.528-1.363,0.791c-0.091,0.053-0.182,0.104-0.284,0.162c-0.065-0.125-0.124-0.238-0.19-0.366
		c0.337-0.188,0.667-0.37,0.996-0.553c-0.002-0.009-0.005-0.019-0.007-0.027c-0.269,0.036-0.538,0.068-0.805,0.112
		c-0.104,0.018-0.169,0-0.192-0.107c-0.002-0.005-0.005-0.009-0.007-0.014c-0.049-0.107-0.146-0.221-0.133-0.319
		c0.013-0.095,0.14-0.174,0.219-0.258c0.144-0.154,0.289-0.306,0.459-0.485c-0.384,0.19-0.735,0.363-1.104,0.545
		C5.966,34.02,5.907,33.91,5.836,33.776z"/>
	<path fill-rule="evenodd" clip-rule="evenodd" fill="#FFFFFF" d="M32.342,44.665c-0.138-0.373-0.271-0.735-0.405-1.098
		c-0.008,0.001-0.016,0.003-0.023,0.004c0,0.287-0.004,0.575,0.002,0.862c0.002,0.08-0.012,0.128-0.094,0.15
		c-0.115,0.032-0.227,0.084-0.344,0.1c-0.046,0.006-0.113-0.054-0.15-0.101c-0.166-0.204-0.323-0.415-0.509-0.616
		c0.024,0.087,0.045,0.174,0.071,0.259c0.078,0.248,0.158,0.494,0.236,0.741c0.025,0.078,0.014,0.133-0.082,0.144
		c-0.033,0.004-0.064,0.019-0.097,0.028c-0.192,0.058-0.187,0.056-0.243-0.145c-0.146-0.514-0.297-1.025-0.446-1.537
		c-0.016-0.055-0.032-0.109-0.054-0.188c0.131-0.043,0.256-0.09,0.385-0.121c0.029-0.007,0.082,0.033,0.107,0.064
		c0.277,0.34,0.55,0.682,0.852,1.058c0.009-0.385,0.017-0.733,0.024-1.082c0-0.015-0.001-0.028-0.001-0.043
		c-0.01-0.366,0-0.381,0.361-0.451c0.03-0.007,0.092,0.036,0.105,0.069c0.158,0.389,0.311,0.779,0.464,1.17
		c0.063,0.16,0.124,0.322,0.192,0.48c0.035,0.082,0.032,0.136-0.066,0.161C32.536,44.6,32.446,44.632,32.342,44.665z"/>
	<path fill-rule="evenodd" clip-rule="evenodd" fill="#FFFFFF" d="M12.69,42.053c0.359-0.546,0.707-1.078,1.06-1.606
		c0.016-0.024,0.087-0.038,0.114-0.023c0.112,0.063,0.221,0.134,0.324,0.212c0.025,0.019,0.036,0.073,0.031,0.109
		c-0.04,0.35-0.086,0.699-0.128,1.049c-0.017,0.145-0.027,0.291-0.044,0.475c0.211-0.317,0.402-0.604,0.594-0.892
		c0.04-0.061,0.092-0.116,0.117-0.183c0.055-0.144,0.123-0.109,0.216-0.04c0.192,0.143,0.196,0.142,0.066,0.34
		c-0.298,0.456-0.601,0.908-0.896,1.365c-0.059,0.091-0.111,0.111-0.192,0.036c-0.003-0.003-0.007-0.006-0.012-0.008
		c-0.299-0.108-0.322-0.328-0.275-0.605c0.063-0.371,0.097-0.747,0.142-1.121c0.002-0.014-0.003-0.027-0.009-0.066
		c-0.172,0.261-0.332,0.504-0.491,0.747c-0.08,0.12-0.155,0.244-0.242,0.36c-0.02,0.026-0.089,0.048-0.113,0.033
		C12.864,42.187,12.786,42.122,12.69,42.053z"/>
	<path fill-rule="evenodd" clip-rule="evenodd" fill="#FFFFFF" d="M38.097,38.786c0.228-0.234,0.451-0.497,0.709-0.719
		c0.217-0.186,0.457-0.151,0.668,0.04c0.085,0.077,0.17,0.156,0.246,0.242c0.125,0.139,0.173,0.299,0.104,0.5
		c0.279,0.049,0.554,0.098,0.827,0.146c0.014,0.021,0.026,0.04,0.04,0.061c-0.104,0.085-0.201,0.18-0.314,0.25
		c-0.048,0.031-0.129,0.021-0.193,0.013c-0.139-0.018-0.275-0.049-0.412-0.071c-0.216-0.036-0.271-0.008-0.435,0.209
		c0.146,0.152,0.29,0.305,0.442,0.464c-0.086,0.086-0.177,0.176-0.275,0.275c-0.246-0.237-0.487-0.464-0.722-0.698
		C38.55,39.266,38.326,39.025,38.097,38.786z M39.058,39.223c0.127-0.139,0.231-0.251,0.333-0.365
		c0.076-0.085,0.081-0.182,0.002-0.26c-0.104-0.104-0.187-0.256-0.374-0.224c-0.014,0.002-0.028,0.011-0.038,0.021
		c-0.122,0.118-0.244,0.237-0.368,0.358C38.771,38.92,38.909,39.065,39.058,39.223z"/>
	<path fill-rule="evenodd" clip-rule="evenodd" fill="#FFFFFF" d="M25.251,44.003c0.295-0.02,0.573-0.04,0.853-0.057
		c0.058-0.004,0.117-0.005,0.173,0.006c0.339,0.068,0.434,0.175,0.467,0.542c0.013,0.129,0.031,0.269-0.002,0.39
		c-0.035,0.131-0.128,0.245-0.209,0.39c0.143,0.183,0.31,0.396,0.499,0.64c-0.176,0.009-0.316,0.02-0.458,0.019
		c-0.029,0-0.063-0.038-0.086-0.066c-0.103-0.127-0.202-0.257-0.302-0.387c-0.146-0.188-0.203-0.206-0.459-0.127
		c0.009,0.202,0.019,0.407,0.027,0.621c-0.114,0.011-0.224,0.024-0.333,0.025c-0.024,0.001-0.068-0.047-0.07-0.074
		c-0.022-0.361-0.038-0.723-0.058-1.084c-0.013-0.222-0.028-0.442-0.042-0.664C25.248,44.119,25.251,44.063,25.251,44.003z
		 M25.662,44.32c0.013,0.234,0.024,0.442,0.035,0.642c0.152,0,0.278,0.006,0.403-0.001c0.121-0.007,0.24-0.036,0.246-0.188
		c0.005-0.113-0.002-0.23-0.027-0.34c-0.011-0.045-0.084-0.104-0.132-0.107C26.021,44.313,25.853,44.32,25.662,44.32z"/>
	<path fill-rule="evenodd" clip-rule="evenodd" fill="#FFFFFF" d="M11.968,41.364c-0.351-0.031-0.822-0.419-0.884-0.752
		c-0.032-0.179,0.024-0.335,0.136-0.471c0.179-0.221,0.361-0.438,0.545-0.654c0.197-0.232,0.436-0.288,0.714-0.158
		c0.25,0.117,0.459,0.286,0.571,0.547c0.071,0.164,0.07,0.339-0.041,0.482c-0.225,0.29-0.453,0.577-0.701,0.846
		C12.229,41.289,12.083,41.313,11.968,41.364z M11.479,40.507c0.027,0.235,0.183,0.327,0.342,0.409
		c0.146,0.075,0.238-0.028,0.321-0.122c0.153-0.173,0.3-0.351,0.446-0.529c0.152-0.188,0.146-0.273-0.032-0.442
		c-0.031-0.03-0.067-0.055-0.103-0.08c-0.151-0.114-0.282-0.103-0.403,0.039c-0.165,0.194-0.329,0.39-0.49,0.587
		C11.522,40.415,11.499,40.473,11.479,40.507z"/>
	<path fill-rule="evenodd" clip-rule="evenodd" fill="#FFFFFF" d="M38.676,40.619c-0.026,0.357-0.215,0.557-0.452,0.721
		c-0.359,0.246-0.633,0.214-0.916-0.112c-0.158-0.181-0.31-0.369-0.463-0.556c-0.258-0.314-0.252-0.612,0.044-0.897
		c0.128-0.125,0.285-0.231,0.448-0.306c0.227-0.103,0.452-0.052,0.617,0.14c0.221,0.255,0.43,0.52,0.633,0.788
		C38.642,40.469,38.657,40.57,38.676,40.619z M38.258,40.682c-0.004-0.013-0.008-0.061-0.033-0.092
		c-0.192-0.238-0.383-0.479-0.589-0.707c-0.042-0.046-0.164-0.07-0.219-0.044c-0.108,0.053-0.202,0.141-0.289,0.228
		c-0.099,0.1-0.072,0.209,0.01,0.311c0.157,0.193,0.313,0.389,0.471,0.583c0.084,0.104,0.183,0.173,0.324,0.121
		C38.11,41.017,38.258,40.848,38.258,40.682z"/>
	<path fill-rule="evenodd" clip-rule="evenodd" fill="#FFFFFF" d="M7.441,36.408c-0.008-0.183,0.077-0.319,0.217-0.421
		c0.241-0.176,0.485-0.349,0.734-0.513c0.29-0.191,0.637-0.132,0.841,0.147c0.096,0.13,0.182,0.271,0.246,0.419
		c0.113,0.257,0.047,0.49-0.172,0.656c-0.248,0.19-0.507,0.369-0.774,0.53C8.265,37.39,8.05,37.36,7.819,37.146
		C7.606,36.948,7.456,36.711,7.441,36.408z M8.226,36.916c0.018-0.004,0.056-0.004,0.082-0.021c0.251-0.17,0.504-0.339,0.749-0.519
		c0.101-0.074,0.11-0.19,0.052-0.3c-0.035-0.067-0.083-0.13-0.133-0.188c-0.117-0.136-0.25-0.152-0.396-0.05
		c-0.201,0.142-0.399,0.287-0.602,0.427c-0.109,0.075-0.176,0.159-0.128,0.3C7.919,36.768,8.07,36.918,8.226,36.916z"/>
	<path fill-rule="evenodd" clip-rule="evenodd" fill="#FFFFFF" d="M42.07,12.503c0.123,0.178,0.237,0.342,0.357,0.515
		c-0.272,0.196-0.53,0.387-0.793,0.572c-0.512,0.361-1.026,0.716-1.535,1.08c-0.093,0.067-0.134,0.055-0.19-0.033
		c-0.089-0.137-0.188-0.267-0.291-0.41C40.435,13.653,41.241,13.086,42.07,12.503z"/>
	<path fill-rule="evenodd" clip-rule="evenodd" fill="#FFFFFF" d="M24.218,43.971c0.132,0.012,0.25,0.022,0.368,0.033
		c0,0.173,0.005,0.341-0.001,0.509c-0.012,0.284-0.029,0.568-0.045,0.854c-0.018,0.343-0.191,0.577-0.546,0.615
		c-0.237,0.026-0.475,0.024-0.688-0.107c-0.167-0.104-0.267-0.247-0.257-0.452c0.021-0.473,0.041-0.945,0.066-1.418
		c0.002-0.032,0.05-0.085,0.078-0.087c0.104-0.005,0.21,0.007,0.332,0.014c-0.016,0.26-0.029,0.504-0.045,0.748
		c-0.015,0.212-0.037,0.423-0.045,0.635c-0.007,0.188,0.114,0.31,0.298,0.317c0.287,0.012,0.373-0.045,0.391-0.276
		C24.159,44.902,24.187,44.449,24.218,43.971z"/>
	<path fill-rule="evenodd" clip-rule="evenodd" fill="#FFFFFF" d="M16.405,43.48c-0.07,0.155-0.144,0.307-0.207,0.462
		c-0.039,0.093-0.076,0.122-0.171,0.056c-0.071-0.051-0.161-0.074-0.251-0.113c0.277-0.619,0.547-1.222,0.823-1.838
		c0.297,0.136,0.579,0.247,0.846,0.39c0.294,0.157,0.368,0.382,0.249,0.681c-0.051,0.129-0.115,0.254-0.184,0.375
		c-0.102,0.181-0.296,0.267-0.494,0.208C16.815,43.64,16.62,43.559,16.405,43.48z M16.562,43.132
		c0.129,0.062,0.237,0.132,0.355,0.163c0.078,0.02,0.22,0.01,0.246-0.036c0.078-0.134,0.207-0.265,0.144-0.446
		c-0.009-0.024-0.035-0.048-0.06-0.061c-0.139-0.071-0.28-0.139-0.422-0.209C16.734,42.746,16.65,42.934,16.562,43.132z"/>
	<path fill-rule="evenodd" clip-rule="evenodd" fill="#FFFFFF" d="M41.176,36.414c0.119-0.172,0.239-0.334,0.347-0.504
		c0.064-0.103,0.116-0.167,0.225-0.047c0.043,0.047,0.106,0.077,0.168,0.119c-0.129,0.189-0.246,0.369-0.371,0.543
		c-0.039,0.055-0.063,0.097,0.001,0.143c0.103,0.071,0.206,0.142,0.322,0.221c0.146-0.203,0.292-0.393,0.421-0.594
		c0.057-0.088,0.09-0.069,0.155-0.021c0.19,0.138,0.195,0.138,0.063,0.337c-0.162,0.244-0.329,0.485-0.494,0.727
		c-0.041,0.061-0.077,0.098-0.162,0.038c-0.488-0.343-0.981-0.678-1.474-1.017c-0.03-0.021-0.057-0.05-0.09-0.08
		c0.223-0.322,0.439-0.64,0.662-0.955c0.013-0.019,0.064-0.031,0.085-0.021c0.068,0.035,0.145,0.071,0.189,0.129
		c0.024,0.031,0.009,0.118-0.019,0.16c-0.123,0.188-0.258,0.37-0.396,0.565C40.934,36.244,41.05,36.326,41.176,36.414z"/>
	<path fill-rule="evenodd" clip-rule="evenodd" fill="#FFFFFF" d="M33.901,42.174c-0.244,0.118-0.486,0.234-0.736,0.355
		c0.063,0.141,0.12,0.271,0.183,0.412c0.192-0.091,0.381-0.165,0.554-0.267c0.131-0.077,0.183-0.025,0.229,0.085
		c0.021,0.048,0.041,0.097,0.07,0.164c-0.229,0.113-0.454,0.226-0.691,0.344c0.066,0.142,0.131,0.279,0.201,0.43
		c0.25-0.119,0.496-0.236,0.756-0.359c0.046,0.086,0.096,0.167,0.131,0.254c0.01,0.024-0.016,0.087-0.041,0.1
		c-0.323,0.158-0.649,0.313-0.978,0.461c-0.028,0.014-0.103-0.013-0.116-0.04c-0.257-0.528-0.507-1.06-0.762-1.59
		c-0.045-0.093-0.073-0.142,0.066-0.196c0.272-0.107,0.528-0.256,0.792-0.387c0.2-0.099,0.22-0.09,0.305,0.115
		C33.878,42.09,33.887,42.126,33.901,42.174z"/>
	<path fill-rule="evenodd" clip-rule="evenodd" fill="#FFFFFF" d="M28.697,43.989c-0.151,0.025-0.284,0.048-0.417,0.071
		c-0.127,0.021-0.256,0.043-0.41,0.068c0.023,0.146,0.047,0.284,0.071,0.438c0.214-0.032,0.412-0.066,0.612-0.091
		c0.052-0.007,0.146,0.003,0.154,0.025c0.027,0.09,0.029,0.188,0.033,0.283c0,0.011-0.055,0.028-0.086,0.033
		c-0.213,0.035-0.428,0.067-0.653,0.104c0.019,0.14,0.03,0.281,0.06,0.42c0.006,0.024,0.084,0.052,0.124,0.047
		c0.187-0.024,0.374-0.052,0.558-0.092c0.121-0.026,0.186-0.005,0.189,0.129c0.002,0.062,0.016,0.122,0.027,0.202
		c-0.411,0.064-0.81,0.127-1.223,0.191c-0.031-0.18-0.063-0.348-0.09-0.518c-0.072-0.452-0.139-0.905-0.217-1.356
		c-0.018-0.104,0.02-0.124,0.107-0.137c0.306-0.044,0.609-0.093,0.914-0.143c0.191-0.032,0.19-0.034,0.216,0.15
		C28.676,43.867,28.686,43.919,28.697,43.989z"/>
	<path fill-rule="evenodd" clip-rule="evenodd" fill="#FFFFFF" d="M44.32,29.317c0.416-0.009,0.728,0.292,0.733,0.708
		c0.006,0.417-0.297,0.723-0.728,0.736c-0.396,0.012-0.711-0.298-0.72-0.707C43.598,29.628,43.889,29.327,44.32,29.317z"/>
	<path fill-rule="evenodd" clip-rule="evenodd" fill="#FFFFFF" d="M5.105,29.313c0.428,0,0.751,0.313,0.729,0.742
		c-0.02,0.411-0.275,0.704-0.752,0.709c-0.35,0.003-0.713-0.299-0.695-0.769C4.402,29.619,4.712,29.313,5.105,29.313z"/>
	<path fill-rule="evenodd" clip-rule="evenodd" fill="#FFFFFF" d="M42.714,35.544c0.129-0.176,0.256-0.332,0.364-0.5
		c0.102-0.159,0.085-0.223-0.042-0.319c-0.15-0.115-0.221-0.111-0.358,0.021c-0.128,0.122-0.246,0.26-0.391,0.358
		c-0.073,0.051-0.196,0.038-0.296,0.038c-0.055,0-0.112-0.026-0.162-0.053c-0.42-0.226-0.486-0.447-0.253-0.872
		c0.083-0.151,0.188-0.291,0.28-0.438c0.052-0.082,0.104-0.105,0.182-0.027c0.05,0.05,0.113,0.086,0.172,0.129
		c-0.108,0.162-0.215,0.308-0.309,0.462c-0.128,0.21-0.056,0.374,0.183,0.403c0.058,0.007,0.133-0.047,0.183-0.092
		c0.127-0.11,0.24-0.235,0.363-0.35c0.098-0.091,0.22-0.119,0.337-0.064c0.156,0.072,0.322,0.145,0.446,0.257
		c0.181,0.164,0.136,0.388,0.037,0.575c-0.108,0.207-0.252,0.396-0.389,0.586c-0.048,0.066-0.119,0.096-0.193,0.014
		C42.823,35.623,42.766,35.586,42.714,35.544z"/>
	<path fill-rule="evenodd" clip-rule="evenodd" fill="#FFFFFF" d="M20.703,43.557c-0.044,0.107-0.084,0.208-0.127,0.314
		c-0.161-0.063-0.309-0.122-0.456-0.177c-0.201-0.075-0.344-0.007-0.403,0.199c-0.07,0.24-0.136,0.481-0.2,0.724
		c-0.048,0.184,0.015,0.295,0.203,0.346c0.134,0.037,0.271,0.066,0.409,0.085c0.095,0.013,0.136,0.036,0.12,0.144
		c-0.034,0.23-0.031,0.243-0.256,0.207c-0.188-0.031-0.381-0.069-0.555-0.144c-0.322-0.136-0.422-0.385-0.324-0.722
		c0.07-0.239,0.158-0.476,0.201-0.721c0.071-0.403,0.33-0.57,0.746-0.503C20.288,43.346,20.509,43.415,20.703,43.557z"/>
	<path fill-rule="evenodd" clip-rule="evenodd" fill="#FFFFFF" d="M10.984,37.879c-0.1,0.084-0.183,0.154-0.275,0.232
		c-0.124-0.143-0.239-0.275-0.358-0.412c-0.422,0.357-0.837,0.709-1.257,1.065c-0.083-0.092-0.16-0.164-0.22-0.248
		c-0.017-0.022,0.004-0.097,0.031-0.12c0.389-0.337,0.781-0.67,1.184-1.013c-0.1-0.114-0.192-0.225-0.29-0.33
		c-0.06-0.063-0.06-0.113,0.012-0.165c0.043-0.031,0.079-0.078,0.126-0.096c0.037-0.015,0.107-0.013,0.129,0.013
		C10.372,37.156,10.672,37.512,10.984,37.879z"/>
	<path fill-rule="evenodd" clip-rule="evenodd" fill="#FFFFFF" d="M21.361,45.685c0.089-0.549,0.176-1.08,0.265-1.624
		c-0.139-0.029-0.276-0.071-0.417-0.082c-0.11-0.008-0.133-0.044-0.107-0.143c0.018-0.064,0.023-0.132,0.038-0.22
		c0.116,0.016,0.229,0.029,0.341,0.047c0.338,0.054,0.675,0.112,1.013,0.162c0.111,0.017,0.149,0.045,0.112,0.167
		c-0.068,0.224-0.06,0.226-0.294,0.175c-0.089-0.02-0.179-0.032-0.279-0.051c-0.048,0.273-0.098,0.537-0.141,0.802
		c-0.042,0.251-0.076,0.504-0.121,0.756c-0.005,0.026-0.061,0.064-0.089,0.063C21.581,45.729,21.483,45.705,21.361,45.685z"/>
	<path fill-rule="evenodd" clip-rule="evenodd" fill="#FFFFFF" d="M39.597,37.185c0.004-0.027,0.004-0.033,0.006-0.036
		c0.069-0.086,0.125-0.216,0.212-0.242c0.066-0.02,0.18,0.082,0.26,0.146c0.35,0.277,0.694,0.561,1.04,0.842
		c0.022,0.018,0.043,0.038,0.066,0.056c0.262,0.195,0.23,0.163,0.027,0.409c-0.046,0.056-0.074,0.076-0.138,0.025
		C40.58,37.983,40.087,37.584,39.597,37.185z"/>
	<path fill-rule="evenodd" clip-rule="evenodd" fill="#FFFFFF" d="M17.788,44.725c0.224-0.629,0.444-1.251,0.669-1.884
		c0.124,0.039,0.237,0.074,0.368,0.114c-0.035,0.121-0.063,0.235-0.103,0.347c-0.171,0.488-0.345,0.978-0.521,1.464
		c-0.013,0.034-0.076,0.079-0.104,0.072C17.996,44.813,17.9,44.768,17.788,44.725z"/>
	<path fill-rule="evenodd" clip-rule="evenodd" fill="#FFFFFF" d="M10.243,39.983c-0.09-0.084-0.18-0.169-0.31-0.289
		c0.165-0.149,0.325-0.285,0.476-0.433c0.303-0.298,0.602-0.6,0.897-0.903c0.062-0.063,0.106-0.069,0.165-0.001
		c0.062,0.072,0.131,0.139,0.195,0.206C11.191,39.038,10.726,39.503,10.243,39.983z"/>
	<path fill-rule="evenodd" clip-rule="evenodd" fill="#FFFFFF" d="M40.298,24.882c0.068,8.23-6.34,14.876-14.237,15.396
		c-4.276,0.282-8.067-0.982-11.271-3.834c-3.207-2.854-4.931-6.475-5.123-10.761c-0.394-8.762,6.478-15.647,14.647-15.98
		C32.983,9.348,40.192,16.162,40.298,24.882z M25.358,31.3c0-0.317,0-0.607,0-0.897c0-0.594-0.002-1.188,0-1.782
		c0-0.084-0.029-0.111-0.111-0.106c-0.14,0.009-0.28,0.015-0.42,0.015c-0.881-0.001-1.762-0.004-2.642-0.006
		c-0.469-0.001-0.938-0.003-1.407-0.002c-0.459,0-0.919-0.001-1.379,0.006c-0.453,0.007-0.898-0.041-1.326-0.194
		c-0.978-0.351-1.544-1.072-1.789-2.056c-0.197-0.793-0.208-1.595-0.03-2.395c0.118-0.532,0.327-1.022,0.702-1.427
		c0.563-0.609,1.29-0.895,2.095-0.909c1.637-0.03,3.274-0.012,4.911-0.013c0.46,0,0.92,0,1.406,0c0-0.2,0.001-0.387,0-0.573
		c-0.001-0.386-0.004-0.772-0.006-1.158c0-0.31-0.003-0.618,0-0.928c0.002-0.103-0.041-0.131-0.139-0.129
		c-0.242,0.004-0.483-0.004-0.726-0.003c-1.796,0.007-3.593,0.001-5.389,0.029c-0.503,0.008-1.012,0.088-1.505,0.193
		c-0.354,0.076-0.702,0.223-1.029,0.384c-0.814,0.403-1.453,1.01-1.922,1.788c-0.595,0.984-0.855,2.072-0.921,3.205
		c-0.04,0.68-0.027,1.361,0.074,2.04c0.115,0.772,0.319,1.516,0.677,2.212c0.371,0.721,0.878,1.329,1.549,1.787
		c0.943,0.644,2.008,0.907,3.135,0.915c2,0.014,4.002,0.004,6.002,0.004C25.226,31.3,25.282,31.3,25.358,31.3z M33.199,26.895
		c0.048-0.023,0.09-0.044,0.132-0.065c0.223-0.114,0.449-0.221,0.666-0.345c0.737-0.421,1.28-1.027,1.658-1.782
		c0.243-0.485,0.399-1.002,0.406-1.544c0.009-0.704-0.146-1.386-0.463-2.014c-0.338-0.673-0.819-1.226-1.469-1.632
		c-0.617-0.387-1.293-0.576-2.001-0.667c-0.3-0.039-0.607-0.026-0.911-0.029c-0.459-0.006-0.918-0.009-1.377-0.008
		c-0.666,0.002-1.333,0.011-1.999,0.013c-0.518,0.002-1.034,0-1.552-0.002c-0.071,0-0.102,0.02-0.102,0.1
		c0.002,0.692,0,1.384-0.001,2.075c0,0.158,0,0.315,0,0.483c0.329,0,0.628,0,0.927,0c0.882,0,1.764-0.005,2.645,0
		c0.556,0.003,1.116-0.046,1.664,0.08c0.535,0.123,0.987,0.362,1.238,0.896c0.347,0.737-0.006,1.652-0.756,1.973
		c-0.37,0.158-0.749,0.224-1.143,0.228c-0.938,0.011-1.878,0.015-2.816,0.019c-0.573,0.002-1.146,0-1.743,0
		c0.038,0.067,0.06,0.11,0.085,0.149c0.242,0.382,0.486,0.764,0.729,1.145c0.264,0.415,0.53,0.827,0.788,1.245
		c0.055,0.088,0.119,0.107,0.213,0.107c0.591,0.004,1.182,0.011,1.771,0.021c0.045,0,0.106,0.024,0.132,0.06
		c0.235,0.329,0.465,0.663,0.696,0.995c0.365,0.528,0.73,1.057,1.097,1.584c0.271,0.392,0.545,0.781,0.816,1.173
		c0.068,0.099,0.142,0.156,0.279,0.153c0.537-0.011,1.075-0.002,1.612-0.002c0.59,0.001,1.18,0,1.806,0
		C35.209,29.82,34.208,28.362,33.199,26.895z"/>
</g>
</svg>
