<?xml version="1.0" encoding="UTF-8"?>
<!-- Created with Inkscape (http://www.inkscape.org/) -->
<svg width="400" height="400.02" version="1.1" viewBox="0 0 400 400.01868" xml:space="preserve" xmlns="http://www.w3.org/2000/svg" xmlns:cc="http://creativecommons.org/ns#" xmlns:dc="http://purl.org/dc/elements/1.1/" xmlns:rdf="http://www.w3.org/1999/02/22-rdf-syntax-ns#"><metadata><rdf:RDF><cc:Work rdf:about=""><dc:format>image/svg+xml</dc:format><dc:type rdf:resource="http://purl.org/dc/dcmitype/StillImage"/><dc:title/></cc:Work></rdf:RDF></metadata><defs><clipPath id="clipPath18"><path d="m0 300.01h300v-300.01h-300z"/></clipPath></defs><g transform="matrix(1.3333 0 0 -1.3333 0 400.02)"><g clip-path="url(#clipPath18)"><g transform="translate(225 139.26)"><path d="m0 0-106.24-62.503c-1.965-1.167-4.1-1.751-6.236-1.751-2.164 0-4.3 0.584-6.264 1.566-3.902 2.335-6.251 6.435-6.251 10.934v125.01c0 4.499 2.349 8.6 6.251 10.935 3.901 2.15 8.798 2.15 12.5-0.185l106.24-62.503c3.93-2.15 6.265-6.251 6.265-10.75s-2.335-8.599-6.265-10.749m-75.004 117c-58.587 0-106.24-47.653-106.24-106.26 0-58.601 47.653-106.26 106.24-106.26 58.602 0 106.27 47.654 106.27 106.26 0 58.602-47.668 106.26-106.27 106.26m0-256.26c-82.805 0-149.99 67.187-149.99 150.01s67.187 150.01 149.99 150.01c82.835 0 150.01-67.188 150.01-150.01s-67.173-150.01-150.01-150.01" fill="#26a69a"/></g></g></g></svg>
