<?xml version="1.0" encoding="utf-8"?>
<!-- Generator: Adobe Illustrator 16.0.3, SVG Export Plug-In . SVG Version: 6.00 Build 0)  -->
<!DOCTYPE svg PUBLIC "-//W3C//DTD SVG 1.1//EN" "http://www.w3.org/Graphics/SVG/1.1/DTD/svg11.dtd">
<svg version="1.1" id="Layer_1" xmlns="http://www.w3.org/2000/svg" xmlns:xlink="http://www.w3.org/1999/xlink" x="0px" y="0px"
	 width="50.02px" height="50px" viewBox="10.991 10.987 50.02 50" enable-background="new 10.991 10.987 50.02 50"
	 xml:space="preserve">
<g>
	<path d="M10.991,35.198c0.025-0.177,0.063-0.353,0.072-0.53c0.163-3.202,0.919-6.257,2.266-9.166
		c2.902-6.27,8.265-11.063,14.813-13.24c1.556-0.518,3.147-0.889,4.778-1.07c0.719-0.08,1.443-0.115,2.165-0.172
		c0.067-0.005,0.135-0.021,0.202-0.033c0.502,0,1.004,0,1.505,0c0.06,0.011,0.12,0.031,0.18,0.033
		c2.207,0.066,4.36,0.442,6.468,1.094c6.464,1.999,11.91,6.624,14.935,12.67c1.101,2.202,1.864,4.513,2.286,6.938
		c0.28,1.605,0.376,3.222,0.347,4.85c-0.058,3.129-0.697,6.135-1.897,9.021c-1.24,2.982-2.994,5.626-5.265,7.923
		c-3.305,3.347-7.24,5.593-11.802,6.74c-1.231,0.311-2.48,0.513-3.744,0.627c-1.231,0.11-2.463,0.136-3.696,0.065
		c-3.322-0.191-6.483-1.007-9.479-2.458c-2.531-1.227-4.792-2.835-6.775-4.828c-3.397-3.415-5.632-7.475-6.711-12.169
		c-0.266-1.155-0.441-2.326-0.525-3.509c-0.025-0.348-0.049-0.695-0.077-1.043c-0.005-0.051-0.028-0.102-0.042-0.153
		C10.991,36.258,10.991,35.728,10.991,35.198z M11.546,35.913c0.109,6.759,2.458,12.497,7.1,17.292
		c4.779,4.704,10.519,7.123,17.223,7.252c6.592-0.043,12.338-2.27,17.087-6.845c4.962-4.778,7.415-10.688,7.537-17.569
		c-0.083-6.731-2.464-12.514-7.164-17.338c-4.675-4.568-10.275-6.97-16.813-7.174c-6.755-0.05-12.632,2.196-17.488,6.894
		C14.082,23.212,11.666,29.129,11.546,35.913z"/>
	<path d="M36.135,59.285c-2.08,0.02-4.012-0.229-5.915-0.715c-1.398-0.357-2.75-0.846-4.06-1.457
		c-1.461-0.683-2.837-1.507-4.126-2.475c-0.679-0.511-1.325-1.061-1.945-1.641c-1.056-0.986-2.01-2.062-2.866-3.224
		c-0.707-0.96-1.333-1.971-1.883-3.028c-0.611-1.175-1.119-2.395-1.523-3.654c-0.34-1.061-0.604-2.14-0.781-3.239
		c-0.12-0.74-0.221-1.482-0.254-2.232c-0.013-0.298-0.029-0.597-0.041-0.895c-0.012-0.299-0.032-0.598-0.026-0.896
		c0.017-0.798,0.048-1.596,0.141-2.391c0.008-0.073-0.027-0.161-0.064-0.231c-0.169-0.32-0.23-0.651-0.136-1.006
		c0.049-0.187,0.159-0.329,0.322-0.418c0.104-0.058,0.14-0.13,0.163-0.241c0.154-0.777,0.34-1.546,0.57-2.305
		c0.326-1.072,0.727-2.116,1.202-3.133c0.537-1.151,1.166-2.248,1.884-3.294c0.57-0.831,1.189-1.626,1.87-2.372
		c0.276-0.303,0.549-0.612,0.84-0.9c0.68-0.668,1.386-1.308,2.137-1.896c1.303-1.021,2.697-1.896,4.186-2.62
		c0.82-0.399,1.663-0.746,2.523-1.047c1.072-0.375,2.167-0.667,3.281-0.88c0.792-0.152,1.589-0.273,2.394-0.324
		c0.742-0.046,1.487-0.085,2.23-0.082c1.406,0.004,2.803,0.148,4.186,0.413c1.784,0.341,3.503,0.885,5.157,1.632
		c1.457,0.657,2.834,1.453,4.127,2.396c0.799,0.582,1.554,1.216,2.275,1.892c1.172,1.099,2.212,2.309,3.136,3.622
		c0.719,1.021,1.347,2.095,1.888,3.22c0.655,1.364,1.178,2.777,1.558,4.243c0.292,1.132,0.505,2.278,0.617,3.441
		c0.045,0.462,0.077,0.926,0.094,1.391c0.022,0.612,0.051,1.227,0.023,1.837c-0.034,0.755-0.106,1.509-0.191,2.26
		c-0.123,1.106-0.361,2.191-0.661,3.264c-0.331,1.181-0.754,2.326-1.266,3.439c-0.537,1.173-1.172,2.293-1.896,3.358
		c-0.579,0.854-1.211,1.665-1.905,2.428c-0.304,0.333-0.606,0.671-0.928,0.988c-1.535,1.513-3.233,2.807-5.12,3.854
		c-1.294,0.718-2.641,1.312-4.045,1.772c-1.556,0.511-3.15,0.854-4.782,1.023C37.689,59.247,36.856,59.302,36.135,59.285z
		 M12.976,33.511c-0.536,4.357,0.216,10.405,4.07,15.801c3.842,5.378,9.06,8.582,15.593,9.631
		c6.608,0.876,12.553-0.713,17.824-4.802c5.352-4.392,8.263-10.042,8.734-16.948c0.241-6.602-1.871-12.333-6.361-17.184
		c-4.545-4.656-10.07-7.063-16.575-7.223c-6.736,0.039-12.475,2.445-17.128,7.324c-3.101,3.25-5.034,7.124-5.905,11.549
		c0.092,0.004,0.153,0.006,0.215,0.01c0.33,0.019,0.594,0.189,0.838,0.389c0.125,0.103,0.073,0.295-0.072,0.329
		c-0.088,0.021-0.139-0.026-0.189-0.094c-0.168-0.224-0.41-0.297-0.676-0.312c-0.109-0.006-0.184,0.035-0.199,0.16
		c-0.019,0.165-0.025,0.336-0.076,0.492c-0.104,0.317,0.044,0.542,0.246,0.743c0.106,0.106,0.238,0.192,0.37,0.268
		c0.367,0.207,0.771,0.271,1.186,0.28c0.405,0.01,0.805-0.051,1.201-0.13c0.729-0.146,1.459-0.289,2.201-0.362
		c0.713-0.07,1.426-0.125,2.143-0.048c0.662,0.069,1.302,0.218,1.906,0.503c0.087,0.042,0.178,0.074,0.275,0.115
		c0.845-0.774,1.876-1.141,3.021-1.369c-0.606-0.269-0.623-0.75-0.565-1.269c0.14,0,0.268,0,0.416,0c0,0.128-0.004,0.245,0,0.362
		c0.015,0.321,0.144,0.49,0.42,0.536c0.095,0.015,0.196,0.014,0.291,0c0.262-0.042,0.408-0.201,0.412-0.471
		c0.002-0.158-0.021-0.319-0.059-0.473c-0.072-0.287-0.229-0.536-0.393-0.779c-0.238-0.352-0.485-0.697-0.714-1.054
		c-0.231-0.361-0.344-0.758-0.307-1.191c0.021-0.232,0.107-0.437,0.289-0.582c0.333-0.268,0.714-0.286,1.106-0.164
		c0.095,0.03,0.185,0.097,0.261,0.166c0.349,0.312,0.279,0.721,0.274,1.113c-0.165,0-0.301,0-0.453,0c0-0.173,0.003-0.333,0-0.491
		c-0.003-0.173-0.072-0.312-0.231-0.392c-0.337-0.171-0.736,0.022-0.801,0.392c-0.016,0.087-0.012,0.18,0,0.269
		c0.044,0.302,0.169,0.572,0.338,0.823c0.26,0.386,0.531,0.766,0.782,1.158c0.209,0.325,0.349,0.681,0.366,1.074
		c0.013,0.29-0.062,0.551-0.275,0.761c-0.025,0.024-0.044,0.055-0.054,0.067c0.638,0.025,1.272,0.05,1.91,0.076
		c0-1.518,0-3.035,0-4.58c-0.25,0-0.489,0-0.729,0c0-0.145,0-0.26,0-0.381c0.649,0,1.286,0,1.928,0c0,0.129,0,0.245,0,0.388
		c-0.243,0-0.475,0-0.718,0c0,1.581,0,3.132,0,4.685c0.163,0.04,0.322,0.066,0.473,0.117c0.123,0.042,0.228,0.023,0.34-0.028
		c0.306-0.139,0.627-0.23,0.962-0.259c0.204-0.017,0.41-0.023,0.625-0.035c0-0.562,0.001-1.119-0.001-1.676
		c0-0.047-0.016-0.096-0.03-0.143c-0.229-0.758-0.458-1.516-0.687-2.274c-0.078-0.259-0.153-0.518-0.234-0.794
		c0.164,0,0.307,0,0.46,0c0.235,0.795,0.469,1.584,0.704,2.374c0.012-0.001,0.024-0.003,0.037-0.005
		c0.234-0.791,0.468-1.581,0.701-2.368c0.158,0,0.293,0,0.444,0c-0.012,0.062-0.016,0.11-0.029,0.154
		c-0.261,0.873-0.521,1.746-0.789,2.616c-0.076,0.248-0.126,0.494-0.119,0.755c0.012,0.411,0.003,0.822,0.003,1.233
		c0,0.09,0,0.18,0,0.258c0.089,0.064,0.166,0.111,0.234,0.168c0.188,0.157,0.241,0.458,0.121,0.664
		c-0.046,0.079-0.111,0.131-0.204,0.108c-0.08-0.02-0.101-0.087-0.097-0.165c0.001-0.027-0.008-0.055-0.011-0.083
		c-0.026-0.305-0.119-0.418-0.416-0.483c-0.426-0.095-0.842-0.033-1.251,0.102c-0.04,0.014-0.076,0.035-0.14,0.065
		c0.103,0.044,0.176,0.069,0.242,0.104c0.302,0.157,0.613,0.3,0.9,0.482c0.408,0.258,0.714,0.615,0.907,1.064
		c0.144,0.336,0.152,0.688,0.146,1.045c-0.01,0.574-0.179,1.095-0.526,1.551c-0.515,0.675-1.206,1.082-2.025,1.273
		c-0.387,0.09-0.781,0.11-1.178,0.138c-0.52,0.035-1.026-0.023-1.534-0.105c-0.088-0.014-0.176-0.043-0.26-0.076
		c-0.086-0.035-0.123-0.126-0.084-0.204c0.037-0.077,0.095-0.084,0.173-0.049c0.063,0.028,0.133,0.048,0.202,0.052
		c0.291,0.018,0.582,0.035,0.874,0.04c0.52,0.009,1.026-0.077,1.516-0.251c0.525-0.188,0.988-0.482,1.376-0.883
		c0.455-0.468,0.69-1.027,0.679-1.694c-0.007-0.479-0.141-0.905-0.445-1.272c-0.369-0.445-0.858-0.721-1.382-0.944
		c-0.088-0.038-0.145,0.003-0.208,0.047c-0.292,0.207-0.543,0.458-0.776,0.727c-0.477,0.551-0.839,1.177-1.169,1.822
		c-0.378,0.739-0.674,1.512-0.967,2.286c-0.273,0.723-0.55,1.443-0.973,2.098c-0.024,0.037-0.042,0.079-0.065,0.124
		c0.035,0.015,0.053,0.028,0.072,0.03c0.724,0.057,1.431,0.208,2.127,0.406c1.208,0.346,2.368,0.813,3.487,1.377
		c0.963,0.486,1.964,0.885,2.937,1.349c0.1,0.048,0.19,0.048,0.297,0.008c0.35-0.138,0.702-0.268,1.058-0.391
		c1.395-0.483,2.798-0.929,4.288-1.015c0.429-0.025,0.848,0.003,1.256,0.137c0.201,0.065,0.382,0.165,0.527,0.324
		c0.258,0.283,0.309,0.699,0.098,1.02c-0.117,0.178-0.257,0.347-0.41,0.495c-0.464,0.449-1.039,0.688-1.664,0.808
		c-0.854,0.162-1.705,0.103-2.551-0.063c-0.884-0.174-1.735-0.455-2.565-0.799c-0.108-0.045-0.197-0.042-0.297-0.002
		c-0.219,0.09-0.44,0.175-0.659,0.264c-0.046,0.019-0.089,0.047-0.146,0.076c0.05,0.042,0.082,0.066,0.115,0.093
		c0.285,0.226,0.545,0.478,0.749,0.78c0.154,0.229,0.244,0.483,0.232,0.766c-0.015,0.359-0.325,0.586-0.669,0.495
		c-0.062-0.017-0.108-0.054-0.088-0.116c0.01-0.035,0.059-0.066,0.097-0.082c0.037-0.015,0.083-0.002,0.125-0.006
		c0.235-0.023,0.327-0.135,0.318-0.373c-0.01-0.24-0.1-0.454-0.252-0.628c-0.205-0.234-0.437-0.445-0.656-0.667
		c-0.139-0.141-0.291-0.203-0.482-0.102c-0.061,0.031-0.131,0.045-0.198,0.064c-0.666,0.186-1.334,0.34-2.033,0.261
		c-0.301-0.034-0.589-0.107-0.836-0.295c-0.187-0.142-0.271-0.328-0.23-0.563c0.052-0.298,0.219-0.506,0.502-0.612
		c0.528-0.197,1.061-0.148,1.57,0.052c0.406,0.159,0.79,0.376,1.18,0.573c0.105,0.053,0.195,0.081,0.312,0.024
		c0.156-0.075,0.322-0.127,0.484-0.19c0.058-0.024,0.115-0.055,0.201-0.097c-0.52-0.229-1.003-0.443-1.487-0.655
		c-1.269-0.554-2.553-1.067-3.863-1.518c-1-0.342-2.01-0.65-3.052-0.844c-0.116-0.021-0.194-0.005-0.271,0.091
		c-0.455,0.564-0.999,1.026-1.632,1.378c-0.346,0.191-0.697,0.378-1.095,0.448c-0.223,0.04-0.43,0.001-0.61-0.142
		c-0.114-0.089-0.181-0.201-0.185-0.355c-0.006-0.189,0.048-0.355,0.155-0.508c0.288-0.411,0.684-0.688,1.131-0.896
		c0.458-0.213,0.943-0.335,1.447-0.37c0.145-0.011,0.239-0.054,0.306-0.193c0.358-0.755,0.736-1.498,1.087-2.255
		c0.492-1.063,1.042-2.094,1.722-3.049c0.466-0.654,0.986-1.259,1.651-1.724c0.027-0.019,0.045-0.048,0.072-0.079
		c-0.661-0.213-1.33-0.287-2.005-0.303c-0.585-0.015-1.167,0.04-1.74,0.166c-0.734,0.162-1.425,0.428-2.035,0.879
		c-0.176,0.13-0.346,0.271-0.483,0.445c0.238,0.199,0.464,0.389,0.69,0.579c0.077-0.056,0.149-0.109,0.225-0.16
		c0.656-0.447,1.866-0.228,2.117,0.854c0.171,0.733-0.056,1.384-0.6,1.9c-0.664,0.629-1.464,0.829-2.355,0.643
		c-0.83-0.174-1.545-0.888-1.54-1.896c0.002-0.622,0.216-1.169,0.573-1.668c0.042-0.059,0.083-0.119,0.126-0.181
		c-0.049-0.025-0.078-0.045-0.11-0.058c-0.789-0.32-1.611-0.475-2.46-0.501c-0.606-0.02-1.209,0.031-1.812,0.086
		c-0.262,0.024-0.521,0.066-0.774,0.101c-0.044,0.111,0.01,0.256-0.149,0.281c-0.045,0.008-0.11,0.008-0.14-0.018
		c-0.058-0.053-0.097-0.126-0.149-0.198c-0.026,0.003-0.06,0.007-0.094,0.012c-0.626,0.102-1.254,0.181-1.89,0.154
		c-0.623-0.027-1.195-0.185-1.652-0.639C13.028,33.539,13.003,33.529,12.976,33.511z M35.002,43.79
		c0.214,0.068,0.394,0.131,0.577,0.185c1.174,0.342,2.365,0.571,3.598,0.49c0.552-0.037,1.088-0.146,1.597-0.369
		c0.269-0.118,0.518-0.272,0.722-0.488c0.289-0.305,0.256-0.697-0.07-0.964c-0.304-0.247-0.665-0.271-1.027-0.265
		c-0.507,0.012-1.009,0.098-1.506,0.205c-1.281,0.279-2.52,0.692-3.75,1.136C35.103,43.733,35.069,43.755,35.002,43.79z
		 M22.785,34.563c-0.376,0.437-0.643,1.142-0.64,1.706c0.002,0.923,0.725,1.786,1.909,1.586c0.417-0.069,0.772-0.263,1.074-0.558
		c0.433-0.423,0.646-0.93,0.577-1.539c-0.064-0.563-0.397-0.931-0.921-1.007c-0.336-0.049-0.642,0.026-0.901,0.275
		c0.026,0.035,0.042,0.057,0.059,0.077c0.193,0.209,0.248,0.461,0.226,0.735c-0.015,0.187-0.119,0.302-0.273,0.315
		c-0.285,0.026-0.5-0.161-0.52-0.448c-0.015-0.222,0.049-0.423,0.163-0.638C23.29,34.902,23.043,34.736,22.785,34.563z
		 M32.752,44.189c-0.48-0.297-0.967-0.563-1.521-0.666c-0.296-0.055-0.592-0.042-0.886,0.036c-0.188,0.049-0.318,0.168-0.407,0.333
		c-0.106,0.196-0.062,0.381,0.121,0.51c0.187,0.132,0.402,0.191,0.626,0.204C31.406,44.648,32.081,44.439,32.752,44.189z
		 M24.486,40.587c-0.186,0.03-0.37,0.053-0.552,0.092c-0.66,0.138-1.253,0.414-1.723,0.911c-0.097,0.104-0.189,0.229-0.235,0.362
		c-0.104,0.305,0.116,0.545,0.431,0.486c0.081-0.014,0.161-0.041,0.238-0.071c0.835-0.335,1.38-0.981,1.84-1.718
		C24.492,40.639,24.486,40.622,24.486,40.587z M23.726,35.219c-0.109,0.126-0.126,0.274-0.135,0.416
		c-0.004,0.075,0.033,0.166,0.082,0.225c0.035,0.043,0.125,0.068,0.181,0.057c0.039-0.008,0.085-0.09,0.088-0.142
		C23.956,35.561,23.892,35.372,23.726,35.219z M13.005,32.3c-0.017-0.003-0.033-0.005-0.05-0.007
		c-0.013,0.097-0.026,0.194-0.039,0.291c0.012,0.001,0.023,0.002,0.034,0.005C12.969,32.493,12.987,32.396,13.005,32.3z"/>
	<path d="M33.681,36.616c-0.16,0.398-0.319,0.791-0.478,1.184c-0.27,0.666-0.569,1.316-0.976,1.911
		c-0.201,0.294-0.42,0.57-0.709,0.785c-0.236,0.176-0.492,0.282-0.793,0.266c-0.188-0.011-0.262-0.071-0.252-0.224
		c0.009-0.142,0.087-0.195,0.265-0.182c0.201,0.016,0.367-0.07,0.517-0.187c0.348-0.267,0.603-0.613,0.821-0.989
		c0.479-0.829,0.845-1.707,1.135-2.618c0.029-0.092,0.028-0.165-0.007-0.257c-0.056-0.148-0.081-0.307-0.117-0.461
		c-0.002-0.013,0.001-0.027,0.003-0.041c0.033-0.296,0.419-0.545,0.717-0.463c-0.052,0.318-0.104,0.637-0.161,0.989
		c0.101-0.009,0.175-0.012,0.247-0.023c0.405-0.063,0.81-0.132,1.215-0.19c0.266-0.038,0.511,0.035,0.734,0.179
		c0.254,0.166,0.309,0.353,0.186,0.627c-0.043,0.095-0.094,0.188-0.155,0.271c-0.591,0.808-1.056,1.686-1.469,2.593
		c-0.065,0.142-0.103,0.304-0.119,0.46c-0.026,0.243,0.104,0.363,0.351,0.346c0.254-0.02,0.491-0.105,0.705-0.242
		c0.58-0.371,1.035-0.862,1.36-1.469c0.042-0.078,0.071-0.165,0.1-0.25c0.29-0.838,0.777-1.537,1.475-2.083
		c0.367-0.288,0.788-0.44,1.263-0.403c0.11,0.009,0.223,0.024,0.328,0.058c0.204,0.066,0.325,0.256,0.302,0.512
		c-0.035,0.377-0.213,0.689-0.447,0.97c-0.344,0.408-0.745,0.747-1.23,0.981c-0.312,0.151-0.644,0.219-1.011,0.247
		c-0.035,0.128-0.089,0.258-0.104,0.391c-0.025,0.228-0.049,0.458-0.034,0.685c0.021,0.318,0.221,0.523,0.533,0.582
		c0.393,0.072,0.761,0.005,1.101-0.21c0.473-0.298,0.824-0.705,1.088-1.188c0.288-0.524,0.561-1.058,0.839-1.587
		c0.252-0.479,0.505-0.959,0.767-1.458c-0.248-0.065-0.492,0.009-0.738-0.051c0.024-0.083,0.045-0.155,0.073-0.251
		c0.187,0,0.372,0.002,0.559,0c0.326-0.004,0.231,0.044,0.398-0.235c0.259-0.437,0.509-0.879,0.757-1.322
		c0.062-0.109,0.135-0.182,0.257-0.222c0.277-0.09,0.551-0.192,0.827-0.289c0.03-0.01,0.063-0.012,0.141-0.028
		c-0.403,0.717-0.827,1.375-1.229,2.089c0.177,0.003,0.331,0.006,0.485,0.007c0.152,0.001,0.305,0,0.456,0
		c-0.004,0.261-0.014,0.273-0.238,0.275c-0.286,0.001-0.57,0-0.866,0c-0.15,0.265-0.3,0.521-0.445,0.782
		c-0.268,0.479-0.545,0.955-0.795,1.444c-0.26,0.509-0.468,1.04-0.555,1.61c-0.049,0.325,0.117,0.528,0.439,0.531
		c0.334,0.002,0.626-0.124,0.89-0.314c0.486-0.352,0.882-0.794,1.174-1.313c0.428-0.758,0.821-1.533,1.229-2.302
		c0.07-0.133,0.139-0.269,0.225-0.434c-0.258,0-0.484,0-0.744,0c0.027-0.107,0.046-0.185,0.069-0.275c0.277,0,0.548,0,0.818,0
		c0.255-0.439,0.523-0.854,0.741-1.296c0.157-0.318,0.369-0.518,0.714-0.594c0.169-0.038,0.328-0.115,0.492-0.171
		c0.044-0.015,0.09-0.022,0.19-0.046c-0.429,0.718-0.832,1.392-1.254,2.098c0.34,0,0.647,0,0.984,0
		c-0.032,0.106-0.056,0.183-0.085,0.279c-0.234,0-0.464,0-0.693,0c-0.062,0-0.125,0.006-0.188-0.001
		c-0.127-0.012-0.201,0.036-0.265,0.151c-0.243,0.446-0.496,0.886-0.748,1.327c-0.281,0.489-0.546,0.987-0.73,1.521
		c-0.088,0.256-0.162,0.519-0.218,0.782c-0.023,0.109-0.002,0.236,0.028,0.348c0.042,0.158,0.168,0.229,0.329,0.239
		c0.359,0.024,0.673-0.105,0.956-0.306c0.419-0.297,0.76-0.676,1.044-1.099c0.428-0.635,0.818-1.295,1.161-1.979
		c0.07-0.143,0.121-0.297,0.159-0.45c0.048-0.187-0.038-0.267-0.227-0.217c-0.084,0.023-0.16,0.077-0.239,0.12
		c-0.036,0.021-0.064,0.058-0.101,0.071c-0.027,0.009-0.076,0.002-0.092-0.018c-0.016-0.018-0.018-0.073-0.001-0.091
		c0.053-0.055,0.111-0.108,0.177-0.144c0.273-0.153,0.566-0.224,0.88-0.165c0.203,0.038,0.289,0.157,0.303,0.365
		c0.014,0.215-0.04,0.414-0.113,0.61c-0.17,0.459-0.426,0.875-0.664,1.3c-0.21,0.375-0.407,0.76-0.587,1.15
		c-0.076,0.167-0.111,0.358-0.139,0.542c-0.046,0.327,0.234,0.559,0.591,0.421c0.191-0.074,0.352-0.2,0.489-0.349
		c0.636-0.688,1.169-1.449,1.651-2.251c0.251-0.417,0.51-0.829,0.769-1.242c0.052-0.081,0.106-0.167,0.178-0.229
		c0.059-0.049,0.143-0.086,0.218-0.093c0.153-0.012,0.214,0.088,0.122,0.208c-0.206,0.263-0.314,0.571-0.448,0.869
		c-0.089,0.196-0.176,0.394-0.265,0.591c-0.159,0.351-0.238,0.723-0.326,1.095c-0.185,0.77-0.336,1.549-0.603,2.298
		c-0.009,0.023-0.005,0.052-0.005,0.064c0.292,0.019,0.578,0.021,0.857,0.062c0.174,0.026,0.354,0.089,0.507,0.176
		c0.225,0.128,0.303,0.358,0.241,0.611c-0.024,0.101-0.056,0.202-0.101,0.295c-0.053,0.112-0.084,0.115-0.263,0.062
		c0.019-0.075,0.029-0.155,0.059-0.229c0.156-0.391,0.011-0.54-0.326-0.631c-0.339-0.094-0.687-0.081-1.035-0.056
		c-0.087,0.007-0.111,0.067-0.147,0.127c-0.198,0.319-0.378,0.651-0.604,0.95c-0.469,0.62-1.047,1.116-1.794,1.378
		c-0.41,0.144-0.835,0.216-1.271,0.155c-0.417-0.06-0.622-0.373-0.527-0.784c0.104-0.442,0.396-0.744,0.767-0.974
		c0.836-0.521,1.734-0.882,2.714-1.025c0.048-0.007,0.095-0.02,0.146-0.031c0.435-0.916,0.647-1.914,1.001-2.865
		c-0.078,0.113-0.155,0.229-0.237,0.34c-0.292,0.397-0.567,0.81-0.885,1.187c-0.284,0.338-0.639,0.603-1.092,0.686
		c-0.566,0.104-1.046-0.294-1.052-0.866c0-0.103,0-0.205,0-0.332c-0.052,0.056-0.096,0.105-0.141,0.155
		c-0.33,0.356-0.696,0.658-1.172,0.807c-0.253,0.078-0.507,0.09-0.765,0.044c-0.448-0.079-0.72-0.396-0.738-0.854
		c-0.006-0.131-0.001-0.263-0.001-0.441c-0.068,0.083-0.115,0.137-0.158,0.193c-0.312,0.409-0.678,0.754-1.151,0.973
		c-0.342,0.157-0.693,0.195-1.059,0.111c-0.419-0.097-0.631-0.409-0.67-0.825c-0.004-0.049,0-0.098,0-0.146
		c-0.001-0.041-0.004-0.082-0.009-0.16c-0.106,0.128-0.191,0.23-0.279,0.332c-0.407,0.476-0.902,0.81-1.534,0.886
		c-0.238,0.029-0.49,0.019-0.726-0.024c-0.489-0.092-0.8-0.438-0.885-0.935c-0.024-0.144-0.036-0.289-0.056-0.453
		c-0.039,0.039-0.072,0.067-0.098,0.101c-0.265,0.353-0.555,0.681-0.921,0.931c-0.421,0.29-0.877,0.453-1.398,0.333
		c-0.406-0.093-0.586-0.319-0.592-0.738c-0.004-0.357,0.118-0.683,0.254-1.004c0.248-0.585,0.587-1.12,0.898-1.672
		c0.075-0.133,0.15-0.267,0.219-0.403c0.031-0.061,0.05-0.129,0.065-0.196c0.039-0.182-0.039-0.3-0.216-0.329
		c-0.054-0.01-0.112-0.009-0.167,0C34.373,36.506,34.043,36.56,33.681,36.616z M48.111,42c-0.009-0.015-0.017-0.03-0.025-0.046
		c-0.193,0.049-0.389,0.094-0.58,0.146c-0.775,0.218-1.506,0.531-2.155,1.018c-0.244,0.183-0.404,0.421-0.449,0.724
		c-0.034,0.23,0.072,0.373,0.298,0.43c0.047,0.013,0.095,0.021,0.144,0.024c0.244,0.014,0.483-0.013,0.72-0.086
		c0.373-0.116,0.687-0.327,0.967-0.595C47.511,43.156,47.84,42.597,48.111,42z M37.533,38.616c0.218,0.026,0.38-0.018,0.533-0.08
		c0.684-0.275,1.24-0.709,1.608-1.355c0.087-0.155,0.148-0.33,0.195-0.502c0.047-0.176-0.037-0.281-0.219-0.304
		c-0.066-0.008-0.139,0.002-0.205,0.016c-0.201,0.047-0.367,0.16-0.521,0.294c-0.473,0.41-0.836,0.907-1.148,1.443
		C37.688,38.278,37.621,38.437,37.533,38.616z"/>
	<path d="M43.86,28.894c-0.281,1.23-0.564,2.46-0.849,3.7c-0.149,0-0.294,0-0.458,0c-0.263-1.2-0.527-2.404-0.791-3.607
		c-0.014,0.001-0.027,0.002-0.041,0.003c0,1.19,0,2.379,0,3.584c-0.159,0-0.293,0-0.439,0c0-1.675,0-3.337,0-5.013
		c0.205,0,0.403,0,0.622,0c0.287,1.313,0.575,2.631,0.863,3.949c0.015-0.001,0.026-0.002,0.04-0.003
		c0.3-1.313,0.601-2.624,0.903-3.948c0.206,0,0.413,0,0.629,0c0,1.671,0,3.333,0,5.012c-0.136,0-0.271,0-0.427,0
		c0-1.228,0-2.45,0-3.672C43.897,28.897,43.879,28.895,43.86,28.894z"/>
	<path d="M41.046,53.51c-0.054-0.042-0.102-0.078-0.149-0.118c-0.545-0.458-0.423-1.305,0.239-1.566
		c0.366-0.145,0.749-0.143,1.111,0.044c0.588,0.303,0.67,1.099,0.157,1.517c-0.053,0.043-0.105,0.084-0.151,0.122
		c0.129,0.115,0.26,0.217,0.37,0.336c0.349,0.379,0.266,1.138-0.278,1.414c-0.462,0.234-0.942,0.248-1.4-0.001
		c-0.583-0.318-0.629-1.094-0.214-1.477C40.825,53.693,40.929,53.61,41.046,53.51z M41.605,55.116
		c0.161-0.038,0.296-0.052,0.416-0.101c0.407-0.162,0.542-0.646,0.222-0.986c-0.344-0.365-0.851-0.368-1.195-0.003
		c-0.274,0.291-0.227,0.727,0.118,0.928C41.304,55.036,41.472,55.07,41.605,55.116z M41.609,52.067
		c-0.039,0.006-0.109,0.008-0.177,0.026c-0.231,0.064-0.388,0.216-0.447,0.448c-0.052,0.205-0.034,0.412,0.126,0.565
		c0.292,0.276,0.728,0.297,1.041,0.023c0.097-0.086,0.152-0.195,0.165-0.327C42.361,52.374,42.086,52.074,41.609,52.067z"/>
	<path d="M47.144,27.585c0,0.131,0,0.247,0,0.387c-0.361,0.041-0.728-0.005-1.104,0.027c0,0.59,0,1.171,0,1.777
		c0.253,0,0.507,0,0.777,0c0,0.15,0,0.277,0,0.429c-0.261,0-0.515,0-0.78,0c0,0.668,0,1.313,0,1.975c0.363,0,0.723,0,1.101,0
		c0,0.138,0,0.258,0,0.393c-0.513,0-1.023,0-1.546,0c0-1.666,0-3.32,0-4.989C46.113,27.585,46.623,27.585,47.144,27.585z"/>
	<path d="M35.605,53.599c-0.006,0.439-0.067,0.862-0.286,1.249c-0.203,0.358-0.509,0.551-0.927,0.575
		c-0.606,0.034-1.027-0.288-1.208-0.851c-0.228-0.709-0.231-1.426,0.058-2.12c0.37-0.889,1.4-0.847,1.842-0.433
		c0.259,0.243,0.391,0.556,0.448,0.896C35.569,53.143,35.582,53.371,35.605,53.599z M35.224,53.599
		c-0.01-0.002-0.019-0.002-0.029-0.004c0-0.09,0.007-0.181,0-0.271c-0.023-0.264-0.067-0.522-0.188-0.763
		c-0.138-0.276-0.357-0.444-0.67-0.454c-0.312-0.01-0.543,0.143-0.693,0.413c-0.05,0.091-0.088,0.189-0.117,0.289
		c-0.126,0.425-0.115,0.86-0.061,1.295c0.026,0.214,0.089,0.42,0.21,0.604c0.281,0.427,0.822,0.481,1.178,0.117
		c0.136-0.138,0.217-0.307,0.255-0.491C35.161,54.092,35.188,53.843,35.224,53.599z"/>
	<path d="M38.023,32.575c-0.519,0-1.03,0-1.558,0c0-1.664,0-3.322,0-4.993c0.52,0,1.031,0,1.559,0c0,0.129,0,0.251,0,0.4
		c-0.37,0-0.742,0-1.129,0c0,0.608,0,1.19,0,1.793c0.263,0,0.524,0,0.805,0c0,0.148,0,0.275,0,0.426c-0.263,0-0.525,0-0.813,0
		c-0.01,0.666-0.002,1.309-0.005,1.981c0.383,0.014,0.755-0.001,1.142,0.009C38.023,32.322,38.023,32.442,38.023,32.575z"/>
	<path d="M29.771,55.001c0.214,0,0.429,0,0.643,0c0.216,0,0.432,0,0.647,0.001c0.243,0.001,0.259,0.02,0.242,0.267
		c-0.001,0.019-0.011,0.039-0.021,0.071c-0.044,0.005-0.09,0.015-0.137,0.015c-0.613,0.001-1.226,0.002-1.838-0.003
		c-0.063,0-0.157-0.014-0.181-0.055c-0.044-0.075-0.043-0.173,0.028-0.25c0.136-0.148,0.272-0.298,0.406-0.448
		c0.336-0.37,0.678-0.737,1.005-1.113c0.107-0.125,0.199-0.271,0.268-0.42c0.236-0.514-0.126-1.008-0.691-0.956
		c-0.219,0.021-0.395,0.126-0.553,0.267c-0.031,0.027-0.058,0.061-0.09,0.088c-0.101,0.088-0.154,0.086-0.25-0.008
		c-0.092-0.09-0.106-0.165-0.026-0.254c0.246-0.273,0.536-0.458,0.921-0.463c0.24-0.003,0.473,0.015,0.688,0.133
		c0.518,0.286,0.603,0.892,0.393,1.345c-0.092,0.198-0.231,0.381-0.376,0.547c-0.292,0.334-0.605,0.651-0.908,0.978
		c-0.065,0.07-0.126,0.146-0.189,0.218C29.759,54.973,29.765,54.988,29.771,55.001z"/>
	<path d="M34.332,32.168c0.361,0,0.705,0,1.06,0c0,0.149,0,0.271,0,0.407c-0.504,0-1,0-1.509,0c0-1.666,0-3.318,0-4.988
		c0.143,0,0.278,0,0.444,0c0.008,0.248,0.002,0.503,0.004,0.757c0,0.25,0,0.501,0,0.752c0,0.258,0,0.515,0,0.772
		c0,0.251,0,0.501,0,0.752c0,0.258,0,0.515,0,0.772C34.332,31.641,34.332,31.891,34.332,32.168z"/>
	<path d="M38.136,55.343c-0.104,0-0.212,0-0.338,0c0-0.942,0-1.88,0-2.835c-0.195,0.044-0.282,0.224-0.459,0.275
		c-0.033-0.025-0.075-0.05-0.106-0.084c-0.093-0.099-0.094-0.134-0.003-0.228c0.199-0.203,0.405-0.401,0.604-0.605
		c0.096-0.098,0.2-0.066,0.305-0.052C38.194,51.995,38.194,55.161,38.136,55.343z"/>
	<path d="M42.457,18.704c0.271-0.653,0.531-1.279,0.791-1.909c0.048,0.003,0.085-0.003,0.114,0.01
		c0.218,0.088,0.441,0.168,0.651,0.273c0.517,0.258,0.682,0.853,0.493,1.332c-0.195,0.496-0.744,0.766-1.265,0.606
		C42.986,18.936,42.742,18.818,42.457,18.704z M42.779,18.584c0.171,0.07,0.318,0.133,0.467,0.19
		c0.044,0.017,0.094,0.025,0.141,0.034c0.333,0.062,0.653-0.103,0.83-0.422c0.172-0.312,0.136-0.662-0.081-0.913
		c-0.192-0.223-0.461-0.289-0.729-0.398C43.194,17.584,42.99,18.076,42.779,18.584z"/>
	<path d="M49.636,21.259c-0.357,0.369-0.713,0.738-1.083,1.119c-0.06-0.058-0.107-0.102-0.164-0.156
		c0.095-0.109,0.171-0.206,0.257-0.295c0.345-0.362,0.692-0.722,1.04-1.083c0.015-0.014,0.027-0.034,0.045-0.042
		c0.051-0.026,0.111-0.076,0.155-0.064c0.079,0.02,0.069,0.101,0.063,0.175c-0.056,0.586-0.106,1.172-0.157,1.759
		c-0.005,0.053-0.001,0.107-0.001,0.19c0.37-0.382,0.721-0.745,1.085-1.122c0.064,0.05,0.115,0.089,0.18,0.139
		c-0.077,0.093-0.145,0.18-0.22,0.259c-0.364,0.382-0.731,0.762-1.1,1.142c-0.054,0.056-0.103,0.145-0.231,0.068
		c0.058-0.686,0.119-1.383,0.18-2.081C49.668,21.264,49.651,21.261,49.636,21.259z"/>
	<path d="M38.155,16.901c-0.039,0.279-0.072,0.518-0.105,0.765c-0.055,0.005-0.095,0.012-0.134,0.011
		c-0.09-0.002-0.115-0.05-0.102-0.138c0.041-0.288,0.076-0.577,0.114-0.865c0.041-0.309,0.082-0.617,0.123-0.927
		c0.021-0.154,0.021-0.155,0.182-0.135c0.22,0.026,0.439,0.061,0.66,0.083c0.266,0.027,0.518,0.236,0.572,0.528
		c0.053,0.277-0.079,0.536-0.355,0.691c-0.042,0.023-0.086,0.042-0.139,0.068c0.102,0.277,0.202,0.547,0.302,0.817
		c-0.212,0.077-0.263,0.058-0.327-0.121c-0.084-0.228-0.163-0.458-0.252-0.709C38.524,16.947,38.349,16.925,38.155,16.901z
		 M38.319,15.865c-0.088,0.304-0.122,0.631-0.086,0.818c0.152,0.02,0.31,0.041,0.467,0.062c0.255,0.034,0.478-0.115,0.509-0.341
		c0.031-0.233-0.132-0.442-0.385-0.479C38.661,15.901,38.495,15.885,38.319,15.865z"/>
	<path d="M47.362,21.19c-0.472,0.043-1.085-0.382-1.083-1.08c0.001-0.583,0.494-1.07,1.08-1.07c0.592,0,1.09,0.474,1.084,1.066
		C48.435,20.804,47.877,21.221,47.362,21.19z M46.526,20.123c-0.042,0.376,0.313,0.837,0.827,0.84
		c0.473,0.003,0.844-0.369,0.848-0.848c0.001-0.413-0.308-0.838-0.832-0.842C46.856,19.27,46.498,19.7,46.526,20.123z"/>
	<path d="M23.321,22.457c-0.102,0.173-0.128,0.188-0.27,0.141c-0.137-0.046-0.272-0.101-0.383-0.141
		c-0.256,0.249-0.495,0.481-0.743,0.722c0.05,0.135,0.099,0.263,0.146,0.393c0.058,0.155,0.051,0.167-0.139,0.275
		c-0.026-0.055-0.056-0.108-0.076-0.164c-0.234-0.602-0.467-1.205-0.7-1.809c-0.012-0.032-0.031-0.064-0.036-0.097
		c-0.012-0.082,0.047-0.136,0.128-0.111c0.1,0.03,0.195,0.072,0.293,0.108c0.561,0.209,1.121,0.417,1.681,0.626
		C23.253,22.413,23.28,22.434,23.321,22.457z M22.389,22.356c-0.287-0.119-0.584-0.234-0.929-0.35
		c0.135,0.343,0.251,0.638,0.363,0.924C22.015,22.737,22.198,22.55,22.389,22.356z"/>
	<path d="M32.486,17.861c-0.188,0.098-0.211,0.094-0.322-0.049c-0.077-0.098-0.151-0.198-0.238-0.312
		c-0.309,0.074-0.62,0.145-0.927,0.227c-0.04,0.01-0.083,0.07-0.096,0.116c-0.027,0.092-0.034,0.19-0.052,0.287
		c-0.009,0.047-0.008,0.112-0.039,0.137c-0.049,0.039-0.121,0.073-0.18,0.068c-0.076-0.007-0.05-0.081-0.04-0.135
		c0.08-0.43,0.159-0.86,0.239-1.291c0.046-0.246,0.09-0.492,0.143-0.735c0.008-0.04,0.044-0.097,0.076-0.104
		c0.033-0.007,0.09,0.028,0.116,0.061c0.434,0.552,0.865,1.106,1.295,1.66C32.474,17.805,32.475,17.828,32.486,17.861z
		 M30.96,17.516c0.288-0.069,0.536-0.129,0.821-0.197c-0.211-0.275-0.406-0.528-0.633-0.823
		C31.081,16.863,31.024,17.172,30.96,17.516z"/>
	<path d="M28.277,17.215c0.083,0.215,0.163,0.419,0.248,0.641c0.279-0.105,0.543-0.204,0.83-0.313
		c0.03,0.064,0.056,0.121,0.092,0.197c-0.283,0.113-0.546,0.217-0.834,0.331c0.086,0.226,0.168,0.442,0.256,0.675
		c0.333-0.125,0.642-0.244,0.973-0.37c0.025,0.075,0.045,0.135,0.071,0.21c-0.406,0.157-0.792,0.305-1.2,0.461
		c-0.254-0.657-0.499-1.289-0.743-1.922c0.029-0.025,0.046-0.051,0.071-0.06c0.33-0.131,0.66-0.259,0.989-0.388
		c0.019-0.007,0.044-0.019,0.06-0.013c0.046,0.02,0.104,0.039,0.127,0.076c0.036,0.057-0.003,0.106-0.062,0.13
		c-0.155,0.061-0.311,0.119-0.467,0.179C28.559,17.101,28.432,17.153,28.277,17.215z"/>
	<path d="M40.258,18.052c0.182-0.688,0.354-1.338,0.532-2.012c0.42,0.084,0.814,0.209,1.21,0.309
		c0.028,0.204,0.004,0.231-0.167,0.188c-0.275-0.07-0.549-0.145-0.847-0.224c-0.062,0.225-0.12,0.435-0.185,0.666
		c0.287,0.08,0.558,0.153,0.825,0.228c0.021,0.204,0.011,0.219-0.157,0.182c-0.17-0.037-0.337-0.087-0.505-0.131
		c-0.066-0.017-0.133-0.033-0.219-0.053c-0.063,0.232-0.12,0.451-0.185,0.69c0.125,0.038,0.242,0.075,0.359,0.108
		c0.154,0.043,0.309,0.082,0.463,0.122c0.033,0.009,0.069,0.014,0.101,0.027c0.063,0.026,0.075,0.078,0.062,0.139
		c-0.017,0.07-0.064,0.087-0.128,0.07c-0.256-0.066-0.512-0.133-0.768-0.2C40.525,18.127,40.4,18.092,40.258,18.052z"/>
	<path d="M35.097,15.511c0.085,0,0.146,0,0.224,0c0.005,0.066,0.012,0.126,0.014,0.188c0.01,0.382,0.017,0.764,0.029,1.146
		c0.007,0.22,0.107,0.39,0.305,0.487c0.199,0.097,0.393,0.071,0.57-0.059c0.145-0.106,0.21-0.26,0.209-0.434
		c-0.001-0.403-0.013-0.806-0.023-1.209c-0.002-0.129,0.039-0.152,0.254-0.113c0.007,0.466,0.035,0.94,0.015,1.409
		c-0.018,0.418-0.383,0.702-0.82,0.692c-0.415-0.009-0.725-0.302-0.758-0.713c0-0.007-0.001-0.014-0.001-0.021
		c-0.01-0.389-0.02-0.778-0.028-1.167C35.083,15.655,35.091,15.594,35.097,15.511z"/>
	<path d="M23.65,19.997c-0.085,0.021-0.163,0.031-0.231,0.059c-0.088,0.038-0.179,0.08-0.253,0.14
		c-0.131,0.106-0.167,0.27-0.105,0.391c0.061,0.122,0.22,0.204,0.371,0.179c0.137-0.024,0.269-0.069,0.406-0.094
		c0.122-0.022,0.247-0.044,0.37-0.041c0.333,0.011,0.55,0.318,0.465,0.64c-0.084,0.319-0.399,0.565-0.755,0.586
		c-0.062,0.003-0.123,0.001-0.203,0.001c0-0.082,0-0.153,0-0.25c0.076,0,0.151,0.006,0.224-0.001
		c0.194-0.021,0.364-0.089,0.465-0.272c0.112-0.203,0.005-0.42-0.228-0.445c-0.101-0.01-0.206,0.01-0.308,0.028
		c-0.143,0.026-0.283,0.068-0.427,0.091c-0.234,0.038-0.428-0.04-0.558-0.24c-0.136-0.21-0.111-0.424,0.022-0.625
		c0.15-0.223,0.377-0.322,0.631-0.367C23.639,19.76,23.657,19.799,23.65,19.997z"/>
	<path d="M26.715,20.048c-0.334-0.628-0.656-1.23-0.988-1.856c0.392-0.21,0.756-0.405,1.118-0.598
		c0.029,0.02,0.052,0.028,0.061,0.044c0.021,0.035,0.036,0.073,0.064,0.137c-0.3,0.164-0.594,0.326-0.909,0.497
		c0.121,0.227,0.237,0.445,0.364,0.684c0.261-0.136,0.51-0.267,0.78-0.408c0.038,0.053,0.074,0.104,0.128,0.178
		c-0.276,0.151-0.529,0.29-0.795,0.436c0.13,0.25,0.258,0.493,0.392,0.75C26.862,19.955,26.806,19.99,26.715,20.048z"/>
	<path d="M34.009,15.582c0.074,0.196,0.066,0.213-0.103,0.238c-0.128,0.019-0.257,0.036-0.401,0.056
		c0.078,0.617,0.153,1.219,0.232,1.842c-0.082,0.015-0.15,0.026-0.241,0.042c-0.083-0.627-0.161-1.228-0.242-1.85
		c-0.186,0.019-0.362,0.037-0.545,0.056c-0.017-0.064-0.03-0.115-0.05-0.192C33.11,15.675,33.557,15.655,34.009,15.582z"/>
	<path d="M46.383,52.325c-0.107-0.005-0.177-0.078-0.175-0.189c0.001-0.102,0.078-0.168,0.195-0.167
		c0.109,0.001,0.175,0.072,0.171,0.188C46.568,52.268,46.501,52.329,46.383,52.325z"/>
	<path d="M54.596,30.448c-0.003,0.101-0.092,0.193-0.185,0.192c-0.098,0-0.185-0.087-0.188-0.187
		c-0.002-0.096,0.086-0.187,0.185-0.187C54.508,30.266,54.599,30.353,54.596,30.448z"/>
	<path d="M54.804,40.769c0.002,0.096-0.082,0.19-0.177,0.196c-0.101,0.009-0.195-0.088-0.193-0.195
		c0.001-0.086,0.088-0.172,0.173-0.174C54.701,40.594,54.801,40.681,54.804,40.769z"/>
	<path d="M52.06,25.704c0.01-0.123,0.064-0.17,0.188-0.164c0.109,0.005,0.187,0.099,0.174,0.209
		c-0.01,0.083-0.104,0.153-0.195,0.146C52.117,25.887,52.051,25.812,52.06,25.704z"/>
	<path d="M22.436,49.376c0.099,0,0.187,0.089,0.185,0.188c-0.002,0.104-0.084,0.188-0.185,0.188c-0.1-0.001-0.183-0.084-0.187-0.188
		C22.247,49.469,22.338,49.377,22.436,49.376z"/>
	<path d="M20.704,47.766c-0.104-0.003-0.171-0.069-0.171-0.168c0-0.111,0.087-0.192,0.202-0.188c0.104,0.005,0.179,0.089,0.17,0.191
		C20.896,47.704,20.816,47.771,20.704,47.766z"/>
	<path d="M20.657,24.642c-0.109-0.004-0.173-0.08-0.167-0.195c0.006-0.105,0.071-0.164,0.176-0.161
		c0.107,0.003,0.188,0.083,0.185,0.183C20.847,24.57,20.763,24.646,20.657,24.642z"/>
	<path d="M51.955,46.532c0.115-0.003,0.175,0.057,0.175,0.177c0,0.115-0.048,0.172-0.152,0.179
		c-0.115,0.008-0.209-0.072-0.208-0.178C51.771,46.604,51.844,46.534,51.955,46.532z"/>
	<path d="M19.11,45.394c0.004-0.12,0.056-0.163,0.187-0.159c0.113,0.004,0.174,0.06,0.174,0.157c0,0.102-0.101,0.2-0.198,0.198
		C19.171,45.587,19.106,45.508,19.11,45.394z"/>
	<path d="M27.736,53.139c0.105,0,0.184,0.077,0.182,0.182c-0.001,0.096-0.073,0.169-0.169,0.174
		c-0.104,0.007-0.185-0.066-0.19-0.174C27.552,53.219,27.628,53.141,27.736,53.139z"/>
	<path d="M17.356,40.74c-0.089-0.002-0.166-0.084-0.167-0.179c0-0.1,0.087-0.19,0.181-0.19c0.101,0.001,0.189,0.084,0.189,0.181
		C17.562,40.658,17.471,40.742,17.356,40.74z"/>
	<path d="M21.729,48.597c0.002,0.093-0.089,0.188-0.184,0.19c-0.091,0.002-0.17-0.074-0.176-0.171c-0.006-0.104,0.07-0.193,0.17-0.2
		C21.637,48.409,21.727,48.495,21.729,48.597z"/>
	<path d="M51.377,47.77c-0.002,0.089-0.085,0.178-0.168,0.18c-0.112,0.005-0.21-0.086-0.203-0.188s0.094-0.187,0.189-0.183
		C51.295,47.583,51.379,47.672,51.377,47.77z"/>
	<path d="M17.7,30.058c0.095-0.001,0.178,0.073,0.181,0.163c0.004,0.11-0.087,0.212-0.188,0.209
		c-0.103-0.002-0.186-0.087-0.184-0.187C17.512,30.147,17.603,30.059,17.7,30.058z"/>
	<path d="M24.428,51.463c-0.089,0.006-0.208-0.086-0.211-0.164c-0.004-0.092,0.08-0.196,0.168-0.207
		c0.101-0.011,0.19,0.062,0.201,0.164C24.597,51.361,24.524,51.456,24.428,51.463z"/>
	<path d="M17.268,32.788c-0.002,0.106-0.079,0.178-0.188,0.176c-0.108-0.001-0.188-0.083-0.183-0.185
		c0.006-0.084,0.113-0.185,0.197-0.185C17.194,32.595,17.271,32.68,17.268,32.788z"/>
	<path d="M49.634,49.705c0.005,0.1-0.08,0.189-0.179,0.191c-0.096,0.002-0.188-0.087-0.193-0.182
		c-0.003-0.101,0.08-0.188,0.183-0.189C49.546,49.524,49.629,49.602,49.634,49.705z"/>
	<path d="M17.097,39.446c-0.109-0.004-0.173-0.064-0.173-0.164c0-0.106,0.099-0.199,0.204-0.189c0.085,0.007,0.173,0.118,0.165,0.21
		C17.287,39.39,17.204,39.45,17.097,39.446z"/>
	<path d="M50.351,48.583c0.098,0.004,0.195,0.102,0.188,0.188c-0.008,0.09-0.116,0.188-0.2,0.182
		c-0.094-0.007-0.174-0.104-0.167-0.205C50.178,48.653,50.258,48.577,50.351,48.583z"/>
	<path d="M54.931,39.332c0.103,0.015,0.169,0.087,0.16,0.176c-0.01,0.114-0.101,0.193-0.206,0.18
		c-0.101-0.014-0.17-0.102-0.158-0.205C54.737,39.379,54.82,39.318,54.931,39.332z"/>
	<path d="M48.497,50.409c0.092,0.004,0.181,0.104,0.174,0.2c-0.006,0.094-0.085,0.165-0.181,0.165
		c-0.099,0.001-0.188-0.089-0.188-0.185C48.303,50.498,48.403,50.406,48.497,50.409z"/>
	<path d="M18.131,28.828c0.1-0.002,0.182,0.081,0.183,0.186c0,0.099-0.083,0.181-0.187,0.182c-0.092,0.001-0.178-0.086-0.186-0.188
		C17.936,28.918,18.027,28.831,18.131,28.828z"/>
	<path d="M17.543,31.506c-0.002,0.095-0.098,0.184-0.192,0.178c-0.108-0.006-0.181-0.083-0.178-0.189
		c0.002-0.098,0.092-0.185,0.188-0.182C17.448,31.316,17.545,31.419,17.543,31.506z"/>
	<path d="M55.276,38.21c-0.004,0.111-0.08,0.187-0.183,0.181c-0.105-0.007-0.189-0.089-0.186-0.183
		c0.005-0.112,0.078-0.183,0.185-0.178C55.209,38.036,55.279,38.108,55.276,38.21z"/>
	<path d="M23.379,50.628c-0.107-0.003-0.171-0.072-0.169-0.188c0.001-0.107,0.073-0.167,0.194-0.162
		c0.1,0.003,0.174,0.073,0.177,0.165C23.584,50.55,23.494,50.631,23.379,50.628z"/>
	<path d="M54.264,42.203c-0.108,0.001-0.19-0.071-0.194-0.169c-0.003-0.104,0.076-0.187,0.178-0.185
		c0.099,0.002,0.181,0.072,0.182,0.157C54.432,42.119,54.362,42.203,54.264,42.203z"/>
	<path d="M54.984,32.816c0.103-0.002,0.197,0.094,0.193,0.196c-0.004,0.091-0.08,0.159-0.181,0.16
		c-0.106,0.001-0.186-0.07-0.188-0.173C54.806,32.887,54.873,32.819,54.984,32.816z"/>
	<path d="M54.735,31.876c-0.111-0.005-0.179-0.067-0.177-0.16c0.001-0.102,0.088-0.195,0.179-0.195
		c0.104,0.001,0.198,0.105,0.188,0.205C54.913,31.825,54.842,31.882,54.735,31.876z"/>
	<path d="M18.342,43.048c0.003,0.106-0.065,0.175-0.179,0.18c-0.11,0.004-0.181-0.064-0.182-0.174c0-0.108,0.064-0.173,0.182-0.178
		C18.279,42.871,18.338,42.928,18.342,43.048z"/>
	<path d="M52.9,27.003c-0.12,0.002-0.167-0.042-0.17-0.158c-0.002-0.127,0.047-0.177,0.176-0.175
		c0.098,0.001,0.177,0.069,0.184,0.159C53.098,26.928,53.019,27.001,52.9,27.003z"/>
	<path d="M20.144,46.517c0.002,0.104-0.074,0.18-0.185,0.182c-0.099,0.003-0.172-0.065-0.179-0.164
		c-0.007-0.104,0.063-0.18,0.177-0.187C20.077,46.341,20.143,46.401,20.144,46.517z"/>
	<path d="M17.005,35.382c-0.003,0.112-0.077,0.181-0.188,0.174c-0.101-0.007-0.159-0.075-0.158-0.183
		c0.002-0.104,0.085-0.18,0.192-0.174C16.956,35.206,17.008,35.268,17.005,35.382z"/>
	<path d="M53.479,28.174c-0.11-0.004-0.161-0.058-0.161-0.172c-0.001-0.12,0.063-0.183,0.18-0.179
		c0.113,0.003,0.187,0.077,0.181,0.185C53.671,28.113,53.595,28.177,53.479,28.174z"/>
	<path d="M47.654,51.397c0.005,0.098-0.074,0.186-0.174,0.193c-0.116,0.011-0.197-0.065-0.198-0.185
		c-0.001-0.103,0.056-0.158,0.17-0.166C47.566,51.233,47.65,51.296,47.654,51.397z"/>
	<path d="M19.939,25.706c-0.113,0.005-0.197-0.061-0.201-0.16c-0.005-0.11,0.065-0.19,0.169-0.19c0.102,0,0.183,0.062,0.19,0.149
		C20.107,25.609,20.035,25.702,19.939,25.706z"/>
	<path d="M19.069,26.654c-0.002-0.118,0.042-0.166,0.156-0.169c0.117-0.003,0.202,0.061,0.204,0.158
		c0.003,0.089-0.092,0.19-0.181,0.192C19.146,26.837,19.07,26.76,19.069,26.654z"/>
	<path d="M51.502,24.453c0.11,0,0.18,0.068,0.182,0.178c0.003,0.102-0.076,0.177-0.183,0.178c-0.105,0-0.168-0.072-0.164-0.19
		C51.341,24.509,51.397,24.453,51.502,24.453z"/>
	<path d="M53.982,43.27c-0.005,0.099-0.078,0.168-0.175,0.167c-0.108-0.002-0.197-0.094-0.195-0.203
		c0.001-0.088,0.083-0.15,0.19-0.147C53.913,43.09,53.988,43.165,53.982,43.27z"/>
	<path d="M53.094,44.45c-0.001-0.111,0.05-0.172,0.154-0.176c0.122-0.007,0.196,0.064,0.193,0.186
		c-0.003,0.103-0.067,0.166-0.169,0.169C53.163,44.632,53.095,44.566,53.094,44.45z"/>
	<path d="M17.102,38c-0.005,0.113-0.074,0.175-0.188,0.167c-0.096-0.006-0.168-0.081-0.168-0.173c0-0.103,0.078-0.177,0.185-0.177
		C17.044,37.819,17.106,37.885,17.102,38z"/>
	<path d="M25.484,51.867c0.103,0.003,0.168,0.068,0.169,0.169c0,0.095-0.094,0.181-0.194,0.177
		c-0.101-0.003-0.165-0.085-0.159-0.203C25.305,51.907,25.363,51.864,25.484,51.867z"/>
	<path d="M55.15,34.114c0.11,0,0.176,0.072,0.171,0.187c-0.002,0.103-0.066,0.166-0.169,0.168c-0.1,0.002-0.196-0.085-0.194-0.175
		C54.96,34.197,55.051,34.113,55.15,34.114z"/>
	<path d="M53.979,29.035c0.111-0.003,0.19,0.063,0.197,0.165c0.007,0.095-0.075,0.178-0.18,0.185
		c-0.109,0.007-0.188-0.062-0.191-0.165C53.803,29.112,53.871,29.039,53.979,29.035z"/>
	<path d="M26.585,52.887c-0.133-0.002-0.175-0.044-0.171-0.177c0.004-0.118,0.067-0.178,0.183-0.174
		c0.109,0.005,0.168,0.077,0.164,0.198C26.758,52.846,26.708,52.888,26.585,52.887z"/>
	<path d="M45.263,52.994c-0.114,0-0.156-0.047-0.156-0.169c0-0.116,0.068-0.191,0.171-0.187c0.098,0.004,0.168,0.091,0.165,0.201
		C45.44,52.942,45.38,52.994,45.263,52.994z"/>
	<path d="M18.47,27.801c0.001-0.107,0.076-0.175,0.186-0.168c0.102,0.005,0.159,0.068,0.161,0.174
		c0.002,0.111-0.067,0.181-0.176,0.18C18.532,27.985,18.468,27.915,18.47,27.801z"/>
	<path d="M17.896,41.815c0.005,0.11-0.065,0.181-0.181,0.18c-0.1-0.001-0.165-0.069-0.166-0.173c0-0.108,0.057-0.174,0.159-0.182
		C17.818,41.631,17.892,41.699,17.896,41.815z"/>
	<path d="M18.858,44.24c0.002,0.11-0.066,0.182-0.175,0.181c-0.102-0.001-0.167-0.063-0.171-0.165
		c-0.006-0.116,0.056-0.188,0.163-0.189C18.79,44.063,18.855,44.126,18.858,44.24z"/>
	<path d="M52.813,45.59c-0.002,0.12-0.068,0.194-0.17,0.188c-0.102-0.008-0.169-0.087-0.163-0.196
		c0.004-0.112,0.055-0.156,0.172-0.153C52.773,45.431,52.815,45.475,52.813,45.59z"/>
	<path d="M55.223,35.765c-0.112,0.003-0.181-0.061-0.188-0.174c-0.004-0.087,0.071-0.157,0.176-0.159
		c0.116-0.002,0.173,0.044,0.18,0.148C55.399,35.698,55.342,35.761,55.223,35.765z"/>
	<path d="M55.364,36.918c-0.003,0.118-0.048,0.162-0.165,0.161c-0.108,0-0.181-0.074-0.177-0.183
		c0.004-0.091,0.082-0.165,0.177-0.167C55.311,36.729,55.367,36.792,55.364,36.918z"/>
	<path d="M16.827,36.521c0.113-0.004,0.171,0.047,0.177,0.153c0.005,0.108-0.049,0.171-0.154,0.178
		c-0.114,0.009-0.193-0.06-0.194-0.164C16.654,36.589,16.722,36.524,16.827,36.521z"/>
	<path d="M44.282,53.418c0.001,0.107-0.049,0.154-0.167,0.16c-0.116,0.005-0.18-0.056-0.18-0.173
		c0.001-0.113,0.046-0.156,0.166-0.158C44.226,53.244,44.281,53.296,44.282,53.418z"/>
</g>
</svg>
