<?xml version="1.0" encoding="utf-8"?>
<!-- Generator: Adobe Illustrator 16.0.3, SVG Export Plug-In . SVG Version: 6.00 Build 0)  -->
<!DOCTYPE svg PUBLIC "-//W3C//DTD SVG 1.1//EN" "http://www.w3.org/Graphics/SVG/1.1/DTD/svg11.dtd">
<svg version="1.1" id="Layer_1" xmlns="http://www.w3.org/2000/svg" xmlns:xlink="http://www.w3.org/1999/xlink" x="0px" y="0px"
	 width="50px" height="7.707px" viewBox="0 0 50 7.707" enable-background="new 0 0 50 7.707" xml:space="preserve">
<g>
	<path fill-rule="evenodd" clip-rule="evenodd" fill="#5e5e5e" d="M0.973,7.557c-0.277,0-0.555,0-0.833,0
		c-0.142,0-0.144,0-0.139-0.139c0.037-1.219,0.318-2.376,0.911-3.446c1.044-1.885,2.608-3.121,4.68-3.709
		c0.428-0.122,0.866-0.201,1.312-0.228C7.144,0.021,7.384-0.003,7.625,0c1.769,0.031,3.354,0.585,4.726,1.707
		c1.31,1.072,2.167,2.437,2.573,4.081c0.107,0.436,0.176,0.878,0.194,1.327c0.004,0.115,0.009,0.23,0.018,0.346
		c0.006,0.073-0.019,0.098-0.094,0.097c-0.582-0.002-1.163-0.003-1.745,0c-0.092,0-0.106-0.038-0.111-0.118
		c-0.015-0.267-0.023-0.535-0.064-0.797c-0.099-0.627-0.3-1.223-0.612-1.776c-0.806-1.426-2.001-2.354-3.589-2.767
		C8.533,2,8.138,1.955,7.737,1.943C6.512,1.906,5.394,2.235,4.393,2.932c-1.252,0.87-2.035,2.062-2.336,3.558
		C1.992,6.807,1.979,7.136,1.951,7.461C1.944,7.542,1.92,7.56,1.845,7.559C1.555,7.555,1.264,7.557,0.973,7.557z"/>
	<path fill-rule="evenodd" clip-rule="evenodd" fill="#5e5e5e" d="M30.493,7.585c0-2.19,0-4.37,0-6.556
		c0.013-0.003,0.028-0.011,0.043-0.011C31.544,1.021,32.552,1,33.559,1.031c0.852,0.026,1.625,0.308,2.263,0.896
		c0.54,0.499,0.846,1.122,0.937,1.851c0.069,0.554,0.047,1.103-0.134,1.634c-0.334,0.979-1.01,1.621-1.981,1.957
		C34.2,7.522,33.74,7.585,33.271,7.585c-0.885,0-1.771,0-2.657,0C30.575,7.585,30.537,7.585,30.493,7.585z M32.22,2.542
		c0,1.171,0,2.341,0,3.508c0.419,0,0.833,0.025,1.243-0.006c0.528-0.041,0.967-0.28,1.267-0.731c0.263-0.396,0.336-0.838,0.28-1.306
		c-0.101-0.836-0.665-1.398-1.502-1.457c-0.417-0.03-0.838-0.013-1.257-0.017C32.242,2.533,32.232,2.539,32.22,2.542z"/>
	<path fill-rule="evenodd" clip-rule="evenodd" fill="#5e5e5e" d="M29.449,4.31c-0.018,0.866-0.272,1.641-0.858,2.287
		c-0.558,0.615-1.266,0.951-2.081,1.066c-0.658,0.093-1.308,0.046-1.93-0.196c-1.162-0.452-1.878-1.288-2.101-2.523
		c-0.127-0.705-0.071-1.398,0.227-2.056c0.479-1.056,1.311-1.678,2.436-1.902c0.923-0.184,1.818-0.08,2.646,0.39
		c0.894,0.508,1.416,1.286,1.591,2.295C29.416,3.881,29.427,4.097,29.449,4.31z M25.941,2.439c-0.47,0-0.902,0.168-1.201,0.457
		c-0.655,0.633-0.708,1.693-0.323,2.395c0.324,0.588,0.84,0.879,1.502,0.878c0.694-0.001,1.222-0.312,1.546-0.938
		c0.205-0.396,0.248-0.818,0.188-1.253C27.52,3.015,26.776,2.431,25.941,2.439z"/>
	<path fill-rule="evenodd" clip-rule="evenodd" fill="#5e5e5e" d="M44.008,7.595c-0.053,0-0.085,0-0.118,0
		c-0.578,0-1.156-0.002-1.734,0.002c-0.086,0-0.119-0.029-0.144-0.107c-0.089-0.279-0.187-0.556-0.282-0.837
		c-0.063,0-0.123,0-0.182,0c-0.75,0-1.5,0.001-2.25-0.002c-0.081,0-0.114,0.025-0.138,0.099c-0.083,0.257-0.17,0.514-0.261,0.768
		c-0.011,0.031-0.052,0.074-0.08,0.074c-0.621,0.004-1.242,0.002-1.863,0.002c-0.006,0-0.013-0.003-0.027-0.008
		c0.006-0.023,0.01-0.047,0.019-0.07c0.803-2.139,1.607-4.278,2.409-6.418c0.024-0.064,0.057-0.082,0.123-0.081
		c0.654,0.002,1.308,0.002,1.962,0c0.066,0,0.095,0.018,0.119,0.082c0.799,2.126,1.602,4.252,2.404,6.378
		C43.977,7.51,43.989,7.543,44.008,7.595z M39.672,5.123c0.531,0,1.051,0,1.582,0c-0.262-0.776-0.521-1.542-0.78-2.308
		c-0.007,0-0.015,0-0.022,0C40.193,3.581,39.935,4.347,39.672,5.123z"/>
	<path fill-rule="evenodd" clip-rule="evenodd" fill="#5e5e5e" d="M11.646,7.558c-0.294,0-0.588-0.002-0.882,0.001
		c-0.074,0.001-0.095-0.023-0.096-0.096C10.648,6.103,9.629,4.84,8.224,4.54C6.873,4.252,5.528,4.897,4.879,6.05
		c-0.237,0.42-0.374,0.87-0.394,1.354C4.479,7.558,4.477,7.558,4.327,7.558c-0.562,0-1.124-0.001-1.686,0.002
		c-0.082,0-0.108-0.024-0.106-0.106c0.018-0.944,0.282-1.815,0.795-2.604c0.755-1.162,1.817-1.895,3.167-2.205
		c0.491-0.113,0.991-0.135,1.494-0.093c0.984,0.082,1.869,0.422,2.646,1.026c1.028,0.798,1.665,1.842,1.898,3.125
		c0.045,0.248,0.054,0.503,0.081,0.755c0.008,0.077-0.018,0.104-0.099,0.103C12.228,7.555,11.937,7.558,11.646,7.558z"/>
	<path fill-rule="evenodd" clip-rule="evenodd" fill="#5e5e5e" d="M47.526,7.583c-0.583,0-1.15,0-1.735,0c0-0.04,0-0.078,0-0.115
		c0-0.803,0.001-1.606-0.003-2.409c0-0.071-0.023-0.151-0.061-0.211c-0.785-1.242-1.574-2.481-2.362-3.721
		c-0.019-0.03-0.037-0.061-0.062-0.103c0.041-0.002,0.072-0.005,0.103-0.006c0.585,0,1.17,0.001,1.755-0.002
		c0.073,0,0.109,0.025,0.145,0.087c0.428,0.732,0.859,1.463,1.29,2.194c0.017,0.027,0.035,0.054,0.06,0.093
		c0.063-0.109,0.122-0.207,0.179-0.306c0.383-0.659,0.768-1.318,1.148-1.979c0.038-0.065,0.078-0.09,0.155-0.089
		c0.585,0.003,1.17,0.002,1.755,0.002c0.029,0,0.059,0,0.107,0c-0.026,0.045-0.044,0.078-0.064,0.109
		c-0.785,1.242-1.57,2.484-2.353,3.728c-0.034,0.055-0.055,0.127-0.055,0.192c-0.004,0.807-0.002,1.613-0.002,2.419
		C47.526,7.502,47.526,7.538,47.526,7.583z"/>
	<path fill-rule="evenodd" clip-rule="evenodd" fill="#5e5e5e" d="M20.153,7.583c-0.587,0-1.155,0-1.736,0c0-1.681,0-3.361,0-5.049
		c-0.613,0-1.213,0-1.82,0c0-0.505,0-1.003,0-1.508c1.784,0,3.57,0,5.363,0c0,0.496,0,0.993,0,1.503c-0.598,0-1.197,0-1.808,0
		C20.153,4.219,20.153,5.896,20.153,7.583z"/>
	<path fill-rule="evenodd" clip-rule="evenodd" fill="#5e5e5e" d="M7.562,7.557c-0.796,0-1.592-0.002-2.388,0.002
		c-0.098,0-0.125-0.029-0.118-0.124C5.103,6.769,5.361,6.199,5.848,5.74c0.419-0.396,0.92-0.615,1.496-0.671
		c1.295-0.126,2.488,0.794,2.698,2.056c0.018,0.107,0.022,0.216,0.037,0.323c0.013,0.09-0.024,0.11-0.11,0.11
		C9.167,7.556,8.364,7.557,7.562,7.557z"/>
</g>
</svg>
