<?xml version="1.0" encoding="utf-8"?>
<!-- Generator: Adobe Illustrator 16.0.3, SVG Export Plug-In . SVG Version: 6.00 Build 0)  -->
<!DOCTYPE svg PUBLIC "-//W3C//DTD SVG 1.1//EN" "http://www.w3.org/Graphics/SVG/1.1/DTD/svg11.dtd">
<svg version="1.1" id="Layer_1" xmlns="http://www.w3.org/2000/svg" xmlns:xlink="http://www.w3.org/1999/xlink" x="0px" y="0px"
	 width="38.257px" height="50px" viewBox="0 0 38.257 50" enable-background="new 0 0 38.257 50" xml:space="preserve">
<g>
	<circle fill-rule="evenodd" clip-rule="evenodd" cx="19.168" cy="5.37" r="5.37"/>
	<path fill-rule="evenodd" clip-rule="evenodd" d="M6.12,16.679c-0.245,0.034-0.496,0.052-0.751,0.052
		C2.404,16.73,0,14.327,0,11.361s2.404-5.369,5.369-5.369c2.966,0,5.37,2.404,5.37,5.369c0,1.774-0.861,3.348-2.188,4.326
		L8.55,15.686c4.894,5.418,7.674,11.901,9.577,18.841c0-3.734,0-7.469,0-11.237c0.705,0,1.376,0,2.113,0c0,3.686,0,7.356,0,11.026
		c0.038,0.004,0.076,0.009,0.114,0.014c0.27-0.926,0.525-1.857,0.812-2.778c1.586-5.095,3.808-9.868,7.133-14.082
		c0.339-0.429,0.677-0.864,1.061-1.252c0.251-0.254,0.327-0.434,0.187-0.653l0.001,0c-1.235-0.983-2.028-2.501-2.028-4.204
		c0-2.965,2.404-5.369,5.369-5.369c2.966,0,5.37,2.404,5.37,5.369s-2.404,5.369-5.37,5.369c-0.246,0-0.487-0.017-0.725-0.048v0
		c-0.311,0.081-0.558,0.305-0.821,0.598c-3.474,3.863-5.822,8.36-7.518,13.227c-1.853,5.316-2.843,10.812-3.332,16.406
		c-0.088,1.013-0.164,2.027-0.249,3.088c-0.695,0-1.381,0-2.126,0c-0.068-0.869-0.129-1.747-0.205-2.625
		c-0.608-7.061-1.931-13.955-4.802-20.482c-1.613-3.667-3.688-7.043-6.454-9.965c-0.139-0.147-0.403-0.264-0.603-0.253L6.12,16.679z
		"/>
	<path fill-rule="evenodd" clip-rule="evenodd" d="M19.169,12.334c2.466,0.003,4.403,1.962,4.383,4.43
		c-0.02,2.427-1.974,4.36-4.408,4.362c-2.465,0.002-4.408-1.948-4.401-4.417C14.749,14.232,16.673,12.331,19.169,12.334z"/>
</g>
</svg>
